<?xml version="1.0" encoding="UTF-8" standalone="no"?>
<svg
   xmlns:dc="http://purl.org/dc/elements/1.1/"
   xmlns:cc="http://creativecommons.org/ns#"
   xmlns:rdf="http://www.w3.org/1999/02/22-rdf-syntax-ns#"
   xmlns:svg="http://www.w3.org/2000/svg"
   xmlns="http://www.w3.org/2000/svg"
   xmlns:sodipodi="http://sodipodi.sourceforge.net/DTD/sodipodi-0.dtd"
   xmlns:inkscape="http://www.inkscape.org/namespaces/inkscape"
   width="104"
   height="104"
   version="1.1"
   viewBox="0 0 104 104"
   id="svg1937"
   sodipodi:docname="mortyLemon.svg"
   inkscape:version="1.0.1 (0767f8302a, 2020-10-17)">
  <defs
     id="defs1941" />
  <sodipodi:namedview
     pagecolor="#ffffff"
     bordercolor="#666666"
     borderopacity="1"
     objecttolerance="10"
     gridtolerance="10"
     guidetolerance="10"
     inkscape:pageopacity="0"
     inkscape:pageshadow="2"
     inkscape:window-width="1848"
     inkscape:window-height="1016"
     id="namedview1939"
     showgrid="false"
     inkscape:zoom="6.7736069"
     inkscape:cx="33.080818"
     inkscape:cy="55.361031"
     inkscape:window-x="72"
     inkscape:window-y="1107"
     inkscape:window-maximized="1"
     inkscape:current-layer="g1933"
     inkscape:pagecheckerboard="false" />
  <metadata
     id="metadata1903">
    <rdf:RDF>
      <cc:Work
         rdf:about="">
        <dc:format>image/svg+xml</dc:format>
        <dc:type
           rdf:resource="http://purl.org/dc/dcmitype/StillImage" />
        <dc:title></dc:title>
      </cc:Work>
    </rdf:RDF>
  </metadata>
  <g
     transform="translate(-581.49 -1288.7)"
     id="g1935">
    <g
       stroke-width=".11273"
       id="g1933"
       inkscape:export-xdpi="97.616005"
       inkscape:export-ydpi="97.616005">
      <path
         d="m609.51 1391.9c0.0813-0.032 0.17863-0.029 0.21608 0.01 0.0375 0.038-0.0291 0.065-0.14796 0.06-0.13133-0.01-0.15804-0.032-0.0682-0.068zm1.4656 0c0.0813-0.032 0.17861-0.029 0.21607 0.01 0.0375 0.038-0.0291 0.065-0.14796 0.06-0.13133-0.01-0.15804-0.032-0.0682-0.068zm14.481-0.7908c0.10971-0.029 0.26189-0.027 0.3382 0 0.0764 0.03-0.0134 0.054-0.19941 0.051-0.18602 0-0.24846-0.028-0.13879-0.056zm2.9311 0c0.10969-0.029 0.26187-0.027 0.3382 0 0.0763 0.03-0.0134 0.054-0.19943 0.051-0.18601 0-0.24845-0.028-0.13877-0.056zm-4.4481-0.1115c0.0813-0.032 0.17862-0.028 0.21608 0.01 0.0375 0.038-0.0291 0.065-0.14797 0.06-0.13131-0.01-0.15803-0.032-0.0682-0.068zm-21.028-7.6452c9.7e-4 -0.31 0.0227-0.4235 0.0487-0.2522 0.0259 0.1714 0.0252 0.4251-2e-3 0.5637-0.0268 0.1387-0.048 0-0.0472-0.3115zm47.372-1.1837c0.11222-0.1241 0.22941-0.2256 0.26041-0.2256 0.0309 0-0.0354 0.1014-0.14769 0.2256-0.11221 0.124-0.2294 0.2255-0.2604 0.2255s0.0354-0.1015 0.14768-0.2255zm1.5783-1.4656c0.36816-0.372 0.69471-0.6764 0.72572-0.6764 0.031 0-0.24484 0.3044-0.61298 0.6764-0.36815 0.372-0.69472 0.6765-0.72571 0.6765-0.0311 0 0.24483-0.3045 0.61297-0.6765zm3.3256-3.3045c0-0.02 0.16487-0.1843 0.36638-0.3664l0.36637-0.3312-0.33109 0.3665c-0.30865 0.3415-0.40166 0.4182-0.40166 0.3311zm1.2401-1.36c0-0.024 0.0888-0.1122 0.19728-0.1974 0.1788-0.1402 0.18279-0.1363 0.0425 0.043-0.14728 0.1876-0.23985 0.2475-0.23985 0.1547zm0.56366-0.6765c0-0.024 0.0888-0.1122 0.19728-0.1974 0.17881-0.1401 0.18278-0.1361 0.0426 0.043-0.14728 0.1877-0.23985 0.2475-0.23985 0.1547zm-63.798-20.992c5e-3 -0.1314 0.0321-0.158 0.0682-0.068 0.0325 0.082 0.0285 0.1787-9e-3 0.2162-0.0375 0.038-0.0641-0.03-0.0592-0.148zm-0.0837-2.6399c0-0.4651 0.02-0.6552 0.0442-0.4228 0.0243 0.2326 0.0243 0.613 0 0.8455-0.0244 0.2326-0.0442 0.043-0.0442-0.4227zm0.0837-2.7713c5e-3 -0.1315 0.0321-0.1581 0.0682-0.068 0.0325 0.082 0.0285 0.1787-9e-3 0.2161-0.0375 0.038-0.0641-0.028-0.0592-0.1479zm30.143-0.8437c-0.0409-0.067-0.0501-0.1445-0.0206-0.174 0.0296-0.029 0.0838 0.025 0.1205 0.1203 0.0762 0.1986 0.0112 0.2335-0.1 0.054zm-30.03-0.2837c5e-3 -0.1313 0.0321-0.158 0.0682-0.068 0.0325 0.082 0.0285 0.1786-9e-3 0.2161-0.0375 0.038-0.0641-0.03-0.0592-0.1479zm30.373-0.4979c0.11221-0.124 0.22941-0.2254 0.2604-0.2254 0.0311 0-0.0354 0.1014-0.14768 0.2254-0.11222 0.1239-0.22941 0.2254-0.26041 0.2254-0.0309 0 0.0354-0.1014 0.14769-0.2254zm-1.9272-1.7191-0.21476-0.2537 0.25364 0.2147c0.23838 0.2017 0.30498 0.2925 0.21476 0.2925-0.0214 0-0.13554-0.1141-0.25364-0.2535zm-0.63047-0.2743c0.0813-0.032 0.1786-0.028 0.21607 0.01 0.0375 0.038-0.0291 0.065-0.14795 0.06-0.13134-0.01-0.15805-0.032-0.0682-0.068zm50.986-6.3019c5e-3 -0.1313 0.0321-0.1581 0.0682-0.068 0.0325 0.082 0.0285 0.1785-9e-3 0.2159-0.0375 0.038-0.0641-0.028-0.0592-0.1479zm0.34711-3.3162c0-0.1551 0.0256-0.2184 0.0569-0.141 0.0313 0.077 0.0313 0.2043 0 0.2819-0.0313 0.077-0.0569 0.014-0.0569-0.1409zm-49.855-1.3247-0.27331-0.3101 0.31001 0.2734c0.17052 0.1503 0.31002 0.2899 0.31002 0.31 0 0.088-0.0913 0.016-0.34672-0.2733zm1.9339-0.094c5e-3 -0.1313 0.0321-0.1579 0.0682-0.068 0.0325 0.082 0.0285 0.1784-9e-3 0.216-0.0375 0.038-0.0641-0.029-0.0592-0.1481zm-4.2625-0.6887c0.1097-0.028 0.26189-0.027 0.33822 0 0.0764 0.03-0.0135 0.054-0.19944 0.052-0.186 0-0.24845-0.027-0.13878-0.057zm52.322-1.7257c0-0.7749 0.018-1.092 0.04-0.7045 0.0221 0.3876 0.0221 1.0216 0 1.4092-0.0221 0.3875-0.04 0.07-0.04-0.7047zm-37.499 1.1606c0.13951-0.027 0.3678-0.027 0.50731 0s0.0254 0.048-0.25365 0.048c-0.27902 0-0.39316-0.023-0.25366-0.048zm2.4259 0c0.10969-0.028 0.26187-0.027 0.3382 0 0.0763 0.03-0.0134 0.054-0.19943 0.052-0.186 0-0.24844-0.028-0.13877-0.056zm-3.208-0.1116c0.0813-0.032 0.17861-0.029 0.21607 0.01 0.0375 0.038-0.0291 0.065-0.14796 0.06-0.13134-0.01-0.15804-0.033-0.0682-0.068zm4.1711 0c0.0813-0.032 0.17862-0.029 0.21607 0.01 0.0375 0.038-0.0291 0.065-0.14796 0.06-0.13134-0.01-0.15804-0.033-0.0682-0.068zm0.56367-0.1128c0.0813-0.032 0.17861-0.028 0.21607 0.011 0.0375 0.038-0.0291 0.065-0.14796 0.06-0.13133-0.011-0.15805-0.031-0.0682-0.068zm-21.87-0.4509c0.0813-0.032 0.17862-0.029 0.21607 0.011 0.0375 0.038-0.0291 0.065-0.14796 0.06-0.13132-0.011-0.15804-0.032-0.0682-0.068zm23.479-0.076c0.0258-0.023 0.17379-0.1014 0.3288-0.1752 0.26575-0.1267 0.26935-0.1243 0.0629 0.041-0.17957 0.1437-0.54652 0.2695-0.3918 0.1341zm-24.314-0.3253-0.21476-0.2536 0.25365 0.2147c0.23838 0.2018 0.30496 0.2926 0.21476 0.2926-0.0214 0-0.13554-0.1142-0.25365-0.2537zm15.399 0.1408c-0.093-0.061-0.11836-0.1091-0.0563-0.1091 0.062 0 0.18882 0.048 0.28183 0.1091 0.093 0.061 0.11837 0.1094 0.0563 0.1094-0.062 0-0.18884-0.048-0.28185-0.1094zm-0.7394-0.4007c-0.21014-0.1683-0.20875-0.1704 0.0348-0.051 0.13951 0.067 0.25365 0.1464 0.25365 0.1754 0 0.086-0.0585 0.062-0.28847-0.1232zm-0.78914-0.4509c-0.21011-0.1683-0.20872-0.1704 0.0348-0.052 0.1395 0.067 0.25365 0.1465 0.25365 0.1752 0 0.086-0.0585 0.062-0.28847-0.1228zm12.182-0.049c0.11223-0.1241 0.22942-0.2255 0.26042-0.2255s-0.0354 0.1014-0.14768 0.2255c-0.11223 0.1238-0.22942 0.2254-0.26042 0.2254-0.0311 0 0.0354-0.1014 0.14768-0.2254zm-28.486-0.076c0.0813-0.033 0.17861-0.029 0.21608 0.01 0.0375 0.038-0.0291 0.065-0.14797 0.06-0.13133-0.01-0.15803-0.032-0.0682-0.068zm29.332-0.7686c0.14563-0.155 0.29014-0.2819 0.32114-0.2819 0.0309 0-0.0627 0.1269-0.2084 0.2819-0.14562 0.155-0.29013 0.2819-0.32114 0.2819-0.0309 0 0.0627-0.1269 0.2084-0.2819zm-14.67-0.2535c-0.14022-0.1789-0.13624-0.183 0.0426-0.043 0.10851 0.086 0.19728 0.1738 0.19728 0.1973 0 0.093-0.0926 0.033-0.23984-0.1548zm15.008-0.1836c0-0.024 0.0888-0.1122 0.19729-0.1974 0.17881-0.1401 0.18277-0.1361 0.0426 0.043-0.14726 0.1877-0.23985 0.2475-0.23985 0.1547zm-16.18-0.8876-0.78611-0.8172 0.81731 0.7861c0.44954 0.4324 0.81733 0.8001 0.81733 0.8174 0 0.083-0.11838-0.028-0.84853-0.7863zm45.049-0.6011c5e-3 -0.1314 0.0321-0.1581 0.0682-0.068 0.0325 0.082 0.0285 0.1787-9e-3 0.2161-0.0375 0.038-0.0641-0.029-0.0592-0.1479zm-0.11274-1.3529c5e-3 -0.1314 0.0321-0.1579 0.0682-0.068 0.0325 0.082 0.0285 0.1785-9e-3 0.216-0.0375 0.038-0.0641-0.028-0.0592-0.148zm-46.573-0.1693c-0.0692-0.1293-0.10454-0.2563-0.0786-0.2824 0.026-0.026 0.10507 0.08 0.17582 0.2352 0.15535 0.3409 0.0798 0.3776-0.0972 0.047zm19.968-1.6343c5e-3 -0.1314 0.0321-0.1582 0.0681-0.068 0.0325 0.082 0.0285 0.1786-9e-3 0.216-0.0375 0.038-0.0641-0.028-0.0592-0.1478zm0.11272-0.5638c5e-3 -0.1313 0.0321-0.158 0.0682-0.068 0.0325 0.082 0.0285 0.1787-9e-3 0.2161-0.0375 0.038-0.0641-0.028-0.0592-0.148zm-20.968-0.2254c5e-3 -0.1313 0.0321-0.1581 0.068-0.068 0.0325 0.082 0.0285 0.1785-9e-3 0.2159-0.0375 0.038-0.0641-0.028-0.0592-0.1479zm21.098-0.6107c0-0.2169 0.0232-0.3058 0.0515-0.1973s0.0283 0.286 0 0.3947c-0.0283 0.1085-0.0515 0.02-0.0515-0.1974zm-21.202 0c0-0.1549 0.0256-0.2185 0.0569-0.1408 0.0312 0.077 0.0312 0.2042 0 0.2817-0.0313 0.077-0.0569 0.014-0.0569-0.1409zm-10.642-0.5306c0.14023-0.027 0.34315-0.026 0.45094 0 0.10777 0.028-7e-3 0.049-0.25498 0.048-0.24801 0-0.3362-0.025-0.19596-0.051zm-1.2956-0.1112c0.10969-0.029 0.26187-0.027 0.3382 0 0.0763 0.03-0.0134 0.054-0.19943 0.052-0.18601 0-0.24846-0.028-0.13877-0.056zm2.5414 0c0.0813-0.032 0.17863-0.029 0.21609 0.01 0.0375 0.038-0.0291 0.065-0.14796 0.06-0.13133-0.01-0.15805-0.032-0.0682-0.068zm-3.2693-0.1127c0.0813-0.032 0.17862-0.028 0.21607 0.011 0.0375 0.038-0.0291 0.065-0.14795 0.059-0.13134-0.01-0.15805-0.032-0.0682-0.068zm3.4209-0.3739c0-0.155 0.0256-0.2184 0.0569-0.1409 0.0313 0.077 0.0313 0.2043 0 0.2818-0.0312 0.077-0.0569 0.014-0.0569-0.1409zm9.1474-0.3382c0-0.341 0.0211-0.4805 0.0469-0.3101 0.0258 0.1706 0.0258 0.4495 0 0.62s-0.0469 0.03-0.0469-0.3099zm21.295-0.056c2e-3 -0.186 0.0276-0.2485 0.0561-0.1389 0.0285 0.1099 0.0268 0.2621-4e-3 0.3383-0.0309 0.076-0.0543-0.013-0.052-0.1994zm-36.836-0.3419c-0.21015-0.1683-0.20876-0.1704 0.0348-0.052 0.13951 0.067 0.25366 0.1465 0.25366 0.1754 0 0.087-0.0585 0.062-0.28847-0.123zm6.9961-0.6138c0.11223-0.124 0.22941-0.2254 0.26043-0.2254 0.0309 0-0.0354 0.1014-0.1477 0.2254-0.11222 0.1241-0.2294 0.2255-0.2604 0.2255s0.0354-0.1014 0.14767-0.2255zm4.002 0.183c0-0.024 0.0888-0.1123 0.19728-0.1974 0.1788-0.1401 0.18278-0.1362 0.0426 0.043-0.14729 0.1879-0.23985 0.2476-0.23985 0.1549zm-1.1273-0.2393c-0.155-0.088-0.22811-0.163-0.16247-0.1651 0.0657 0 0.21783 0.07 0.3382 0.1615 0.27834 0.2104 0.18945 0.2123-0.17573 0zm-11.34-0.3101-0.21476-0.2536 0.25366 0.2147c0.23835 0.2019 0.30495 0.2926 0.21475 0.2926-0.0214 0-0.13554-0.1142-0.25365-0.2537zm13.426-0.3101c0.30535-0.3098 0.58054-0.5635 0.61155-0.5635 0.031 0-0.19347 0.2537-0.49882 0.5635-0.30534 0.3101-0.58055 0.5638-0.61155 0.5638-0.0311 0 0.19347-0.2537 0.49882-0.5638zm3.6816 0.3382c0-0.1548 0.0256-0.2183 0.0569-0.1408 0.0312 0.077 0.0312 0.2044 0 0.2819-0.0313 0.077-0.0569 0.014-0.0569-0.1411zm20.96-0.066c5e-3 -0.1312 0.0321-0.1579 0.0681-0.068 0.0325 0.082 0.0285 0.1786-9e-3 0.2161-0.0375 0.038-0.0641-0.029-0.0592-0.1482zm-38.798-0.5824-0.2733-0.3099 0.31001 0.2733c0.28976 0.2553 0.36172 0.3466 0.2733 0.3466-0.0202 0-0.1597-0.1394-0.31001-0.31zm17.942 0.018c5e-3 -0.1312 0.0321-0.158 0.068-0.068 0.0325 0.082 0.0285 0.1786-9e-3 0.2161-0.0375 0.038-0.0641-0.028-0.0592-0.148zm-18.452-0.6388-0.21476-0.2535 0.25365 0.2146c0.23835 0.2018 0.30496 0.2926 0.21476 0.2926-0.0214 0-0.13554-0.1142-0.25365-0.2537zm15.286 0.2111c0-0.024 0.0888-0.1121 0.19727-0.1972 0.17882-0.1403 0.1828-0.1363 0.0426 0.043-0.14727 0.1878-0.23984 0.2476-0.23984 0.1548zm17.008-2.2966c-0.13928-0.1776-0.13558-0.1823 0.0372-0.047 0.112 0.089 0.29977 0.1199 0.45095 0.077 0.2016-0.058 0.22156-0.046 0.0899 0.045-0.24298 0.17-0.40173 0.1494-0.57804-0.075zm5.133-0.62-0.21476-0.2537 0.25364 0.2149c0.1395 0.118 0.25365 0.2322 0.25365 0.2536 0 0.09-0.0907 0.024-0.29253-0.2148zm-4.1948-0.2537c2e-3 -0.186 0.0276-0.2485 0.0561-0.1387 0.0285 0.1097 0.0267 0.2619-4e-3 0.3382-0.0309 0.076-0.0541-0.013-0.052-0.1995zm-16.247-0.2349c5e-3 -0.1313 0.032-0.1579 0.0682-0.068 0.0325 0.082 0.0285 0.1785-9e-3 0.216-0.0375 0.038-0.0641-0.028-0.0592-0.1481zm19.991-0.075-0.21476-0.2537 0.25366 0.2148c0.23835 0.2018 0.30495 0.2926 0.21475 0.2926-0.0214 0-0.13554-0.1141-0.25365-0.2537zm-16.73-0.1271c0-0.024 0.0888-0.1121 0.19729-0.1973 0.17882-0.1402 0.18279-0.1363 0.0426 0.043-0.14728 0.1879-0.23986 0.2476-0.23986 0.1547zm12.672-0.2111-0.21476-0.2537 0.25365 0.2148c0.23837 0.2018 0.30497 0.2926 0.21476 0.2926-0.0214 0-0.13554-0.1141-0.25365-0.2537zm-1.0603 0.098c0-0.024 0.0888-0.1122 0.19727-0.1972 0.17882-0.1402 0.1828-0.1363 0.0426 0.043-0.14728 0.1878-0.23985 0.2475-0.23985 0.1547zm-14.759-0.2486c5e-3 -0.1313 0.0321-0.1579 0.0681-0.068 0.0325 0.082 0.0285 0.1786-9e-3 0.2162-0.0375 0.038-0.0641-0.029-0.0592-0.1481zm-18.818-0.1596c0-0.155 0.0256-0.2185 0.0569-0.141 0.0313 0.077 0.0313 0.2043 0 0.2818-0.0313 0.077-0.0569 0.014-0.0569-0.1408zm37.967-0.1974-0.38851-0.4227 0.42276 0.3884c0.39349 0.3616 0.47458 0.4571 0.38848 0.4571-0.0188 0-0.20906-0.1903-0.42273-0.4228zm-15.157-0.2536c0.30535-0.3101 0.58054-0.5638 0.61155-0.5638 0.031 0-0.19348 0.2537-0.49882 0.5638-0.30537 0.31-0.58056 0.5636-0.61157 0.5636-0.0311 0 0.19349-0.2536 0.49884-0.5636zm11.309 0.3738c0.0813-0.032 0.17861-0.028 0.21607 0.01 0.0375 0.038-0.0291 0.065-0.14795 0.06-0.13135-0.011-0.15805-0.032-0.0682-0.068zm-15.18-0.3738c0-0.155 0.0256-0.2184 0.0569-0.1409 0.0313 0.077 0.0313 0.2043 0 0.2818-0.0312 0.077-0.0569 0.014-0.0569-0.1409zm-19.486-0.6201c9.6e-4 -0.372 0.0216-0.5106 0.0467-0.308 0.0251 0.2027 0.0246 0.507-9.7e-4 0.6765-0.0257 0.1693-0.0462 0-0.0457-0.3685zm37.551 0.028-0.21476-0.2535 0.25366 0.2146c0.23836 0.2019 0.30497 0.2926 0.21476 0.2926-0.0214 0-0.13554-0.1141-0.25366-0.2537zm-17.932-0.8736c0-0.4651 0.02-0.6552 0.0442-0.4226 0.0243 0.2323 0.0243 0.6129 0 0.8453-0.0244 0.2326-0.0442 0.042-0.0442-0.4227zm4.5842 0.7466c0-0.024 0.0889-0.1122 0.19729-0.1973 0.17882-0.1402 0.18278-0.1363 0.0426 0.043-0.14727 0.1877-0.23986 0.2474-0.23986 0.1546zm12.837-0.2675c-0.14022-0.1787-0.13622-0.1827 0.0426-0.043 0.18778 0.1473 0.24749 0.2399 0.15471 0.2399-0.0234 0-0.11219-0.089-0.19729-0.1974zm-36.489-0.8736c2e-3 -0.1861 0.0276-0.2486 0.0561-0.1387 0.0285 0.1095 0.0268 0.2618-4e-3 0.3381-0.0309 0.076-0.0543-0.013-0.052-0.1994zm25.167 0.1189c0.12036-0.096 0.26833-0.1753 0.3288-0.1753 0.14324 0 0.0793 0.051-0.26579 0.2165-0.26575 0.1266-0.26935 0.1242-0.0629-0.041zm2.2965-0.816c0.0813-0.032 0.17862-0.028 0.21608 0.01 0.0375 0.038-0.0291 0.065-0.14796 0.06-0.13134-0.01-0.15804-0.032-0.0682-0.068zm0.56367-0.1127c0.0813-0.032 0.17862-0.029 0.21607 0.011 0.0375 0.038-0.0291 0.065-0.14796 0.06-0.13133-0.011-0.15805-0.032-0.0682-0.068zm4.2839 0c0.0813-0.032 0.17862-0.029 0.21608 0.011 0.0375 0.038-0.0291 0.065-0.14795 0.06-0.13134-0.011-0.15806-0.032-0.0682-0.068zm-13.376-0.2612c0-0.1551 0.0256-0.2184 0.0569-0.1409 0.0313 0.077 0.0313 0.2043 0 0.2818-0.0312 0.077-0.0569 0.014-0.0569-0.1409zm9.931 0.1448c0.17051-0.026 0.44952-0.026 0.62002 0 0.17051 0.026 0.0311 0.046-0.31001 0.046-0.34102 0-0.48053-0.022-0.31001-0.046zm2.3674 0c0.1085-0.028 0.28606-0.028 0.39457 0 0.1085 0.029 0.0198 0.052-0.19729 0.052-0.217 0-0.30578-0.024-0.19728-0.052zm-12.42-0.8899c5e-3 -0.1314 0.0321-0.1582 0.0681-0.068 0.0325 0.082 0.0285 0.1785-9e-3 0.2159-0.0375 0.038-0.0641-0.028-0.0592-0.1478zm-17.708-1.5125c0.0664-0.1241 0.14602-0.2256 0.17702-0.2256 0.0311 0 2e-3 0.1014-0.0643 0.2256-0.0664 0.124-0.14604 0.2254-0.17704 0.2254s-2e-3 -0.1014 0.0643-0.2254zm17.039-0.3101c-0.12302-0.2873-0.12024-0.294 0.0383-0.091 0.094 0.1204 0.17096 0.2599 0.17096 0.31 0 0.1713-0.0764 0.092-0.20921-0.2188zm-0.75973-1.1837-0.21476-0.2536 0.25363 0.2147c0.23838 0.2019 0.30497 0.2925 0.21477 0.2925-0.0214 0-0.13555-0.1141-0.25364-0.2536zm-15.377 0.098c0-0.024 0.0889-0.1123 0.19728-0.1973 0.17881-0.1402 0.18279-0.1362 0.0425 0.043-0.14725 0.1877-0.23985 0.2474-0.23985 0.1547zm6.7618-0.3547c-0.0783-0.095-0.12076-0.1937-0.0941-0.2204 0.0267-0.027 0.11043 0.05 0.18611 0.1719 0.16366 0.262 0.10907 0.2907-0.092 0.047zm1.202-0.054c0.0708-0.093 0.15372-0.2705 0.18421-0.3946 0.0527-0.2141 0.056-0.2134 0.0686 0.014 7e-3 0.1319-0.0757 0.3095-0.18421 0.3945-0.17158 0.1347-0.18051 0.1328-0.0686-0.014zm-7.1183-0.5637c0.24218-0.2479 0.4657-0.451 0.49671-0.451 0.0309 0-0.1418 0.2031-0.38396 0.451-0.24218 0.2481-0.4657 0.451-0.49671 0.451-0.0309 0 0.14179-0.2029 0.38396-0.451zm13.968 0.1973-0.21476-0.2536 0.25365 0.2147c0.23835 0.2019 0.30496 0.2926 0.21475 0.2926-0.0214 0-0.13553-0.1142-0.25364-0.2537zm-14.306-0.5353c0.24218-0.2481 0.46569-0.4511 0.49671-0.4511 0.0309 0-0.1418 0.203-0.38396 0.4511-0.24218 0.2479-0.4657 0.4508-0.4967 0.4508-0.0309 0 0.14179-0.2029 0.38395-0.4508zm13.517-0.1411-0.21476-0.2536 0.25366 0.2147c0.23836 0.2018 0.30496 0.2925 0.21476 0.2925-0.0214 0-0.13556-0.1141-0.25366-0.2536zm-7.7115 0.034c0-0.058 0.0501-0.137 0.11143-0.175 0.0639-0.04 0.0828 0.011 0.0443 0.1068-0.0748 0.1952-0.15575 0.231-0.15575 0.068zm-4.5657-0.3449c0.11223-0.1239 0.22942-0.2255 0.26042-0.2255 0.0311 0-0.0354 0.1015-0.14767 0.2255-0.11223 0.1241-0.22942 0.2255-0.26041 0.2255-0.0309 0 0.0354-0.1014 0.14766-0.2255zm5.2153 0.032c0.14023-0.027 0.34316-0.026 0.45093 0 0.10777 0.029-7e-3 0.049-0.25497 0.049-0.248 0-0.3362-0.025-0.19596-0.05zm6.0515-0.4338c-0.21014-0.1683-0.20875-0.1704 0.0348-0.052 0.13952 0.067 0.25365 0.1465 0.25365 0.1755 0 0.086-0.0585 0.062-0.28847-0.1231zm-2.8892-1.3672c0.0813-0.032 0.17862-0.028 0.21607 0.01 0.0375 0.038-0.0291 0.065-0.14797 0.06-0.13132-0.01-0.15803-0.033-0.0682-0.069zm-0.68344-0.1104c0.0775-0.031 0.20433-0.031 0.28183 0s0.0141 0.057-0.14091 0.057c-0.15502 0-0.21844-0.026-0.14092-0.057zm-2.8747-0.1201c0.23251-0.025 0.61298-0.025 0.84549 0 0.23252 0.025 0.0422 0.044-0.42273 0.044-0.46503 0-0.65528-0.021-0.42276-0.044zm1.5798 0c0.17135-0.026 0.42501-0.026 0.56365 0 0.13868 0.027-2e-3 0.047-0.31154 0.047-0.31003 0-0.42347-0.024-0.25211-0.048zm-1.9462-0.5254c0-0.024 0.0889-0.1122 0.19728-0.1972 0.1788-0.1404 0.18279-0.1364 0.0425 0.043-0.14727 0.1877-0.23984 0.2475-0.23984 0.1547zm50.039-1.8457c-0.14022-0.179-0.13622-0.1829 0.0426-0.043 0.18778 0.1474 0.2475 0.24 0.15472 0.24-0.0234 0-0.11217-0.088-0.1973-0.1973zm-47.503-0.7046c0.11223-0.1241 0.22941-0.2255 0.26041-0.2255 0.0309 0-0.0354 0.1014-0.14768 0.2255-0.11223 0.124-0.22942 0.2255-0.26042 0.2255-0.0311 0 0.0354-0.1014 0.14769-0.2255zm0.8455-0.719c0-0.024 0.0889-0.1122 0.19728-0.1972 0.17881-0.1403 0.18278-0.1363 0.0425 0.043-0.14729 0.1877-0.23985 0.2474-0.23985 0.1547zm15.937-1.8203c-1.001-0.5144-0.90282-2.0112 0.2047-3.1186 1.3362-1.3361 5.3057-2.2355 7.8213-1.772 1.8334 0.3377 2.834 1.4576 2.0252 2.2662-0.3411 0.3411-0.87853 0.5091-2.1061 0.6584-2.6226 0.3189-2.5403 0.2967-4.4045 1.1951-1.4964 0.7212-1.8863 0.8633-2.4817 0.9039-0.50534 0.034-0.80664 0-1.059-0.133zm26.389-4.9293-0.44563-0.4792 0.47913 0.4457c0.44558 0.4144 0.5309 0.5126 0.44561 0.5126-0.0184 0-0.234-0.2156-0.47911-0.4791zm-1.7114-2.0011c0-0.2789 0.0219-0.393 0.0489-0.2535 0.0269 0.1394 0.0269 0.3676 0 0.5072-0.0269 0.1395-0.0489 0.026-0.0489-0.2537zm-9.6131-0.3808c0-0.024 0.0889-0.1122 0.19729-0.1972 0.17881-0.1402 0.18278-0.1362 0.0426 0.043-0.14727 0.1877-0.23985 0.2474-0.23985 0.1546zm-9.6035-0.2598c0.0813-0.032 0.17862-0.029 0.21608 0.011 0.0375 0.038-0.0291 0.065-0.14796 0.059-0.13134-0.01-0.15805-0.032-0.0682-0.068zm1.4043-0.1139c0.1097-0.028 0.26188-0.027 0.3382 0 0.0764 0.031-0.0134 0.054-0.19942 0.052-0.18601 0-0.24846-0.028-0.13878-0.056zm1.9165 0c0.1097-0.028 0.26188-0.027 0.3382 0 0.0763 0.031-0.0134 0.054-0.19942 0.052-0.18602 0-0.24846-0.028-0.13878-0.056z"
         fill="#e7fcc9"
         id="path1919" />
      <path
         d="m609.36 1391.4c-1.6726-0.1575-3.0277-0.8257-3.892-1.9191-0.60412-0.7642-1.3899-2.4048-1.6928-3.5343-0.34941-1.3028-0.40459-2.7932-0.16271-4.3933 0.22575-1.4934 0.18112-3.2862-0.10809-4.3423-0.30214-1.1032-1.6888-3.3833-2.0575-3.3833-0.20464 0-0.20777-0.01 0.37047 0.8552 1.0342 1.5422 1.368 2.4625 1.4685 4.0488l0.0643 1.0146-0.54454-0.9452c-0.29949-0.5199-1.3735-2.0418-2.3867-3.3819-2.0875-2.7615-2.6145-3.5654-3.3368-5.0906-1.0357-2.187-1.7584-4.898-2.5431-9.539-0.78411-4.6377-1.087-9.2107-0.79859-12.057 0.44334-4.3747 1.857-10.301 4.0304-16.897 1.9709-5.9812 3.6566-9.8138 5.842-13.283l0.88493-1.4047 0.37368 0.8608c0.94182 2.1697 2.4353 3.6573 4.8267 4.8081 1.526 0.7344 3.8932 1.1565 5.4407 0.9699l0.70593-0.085 0.29949 0.515c0.305 0.5244 1.7983 2.1495 1.9751 2.1495 0.31803 0 0.11525-0.396-0.56703-1.1072-0.90206-0.9406-1.4848-1.9441-1.4848-2.5575 0-0.34 0.0861-0.5063 0.45121-0.8714 0.43921-0.4392 0.46843-0.45 1.1008-0.4042 0.78386 0.056 1.4396 0.3606 2.3246 1.0773 1.1002 0.891 1.0698 0.8741 1.1586 0.6426 0.0572-0.1492-0.044-0.3077-0.38672-0.6047l-0.46435-0.4023 0.89986-0.8301c2.0914-1.9293 3.0832-4.3203 3.0692-7.3996-8e-3 -1.7354-0.23227-2.7662-0.89391-4.1062-0.4226-0.856-0.70258-1.2423-1.44-1.9864-1.1789-1.1901-2.9678-2.3367-4.2973-2.755-0.68824-0.2165-0.68418-0.2903 0.0243-0.4445 0.71283-0.155 2.2866-0.8575 2.2866-1.0206 0-0.2279-0.23352-0.2118-0.84389 0.058-1.2297 0.5439-3.4313 0.9542-5.1196 0.9542h-0.40033l0.84267-0.8559c4.7807-4.8554 12.003-8.813 19.331-10.593 2.5923-0.6297 3.4504-0.7479 5.8621-0.8074 4.2618-0.1056 6.606 0.4725 9.5372 2.3504 0.86135 0.5518 1.1741 0.6688 1.0889 0.4079-0.0595-0.1825-1.1898-0.9722-2.2828-1.5952l-0.85962-0.49 0.59838-0.5034c1.62-1.363 3.4706-2.2583 4.9789-2.4089 1.2307-0.1228 2.7417 0.3718 3.4493 1.1293 0.21912 0.2345 0.28628 0.4464 0.32264 1.0175l0.0459 0.7212-0.71469-0.2225c-0.78815-0.2452-1.9098-0.254-1.9885-0.015-0.0316 0.096 0.0871 0.1409 0.36937 0.1409 1.2871 0 2.8228 0.724 4.0382 1.9037 1.442 1.3997 2.3338 2.9068 2.8802 4.8675 0.39151 1.4047 0.3688 1.433-0.57835 0.7206-0.83037-0.6247-2.3708-1.4484-2.9324-1.568-0.56459-0.1202-0.34401 0.2209 0.32108 0.4966 1.1598 0.4806 2.6342 1.5544 3.9376 2.8677 1.8903 1.9045 3.2866 3.8926 4.8983 6.9739 2.196 4.1988 3.478 7.6509 4.2807 11.527 2.0341 9.8219 1.3242 20.52-2.0459 30.832-1.1974 3.6641-1.8193 5.3495-2.9321 7.9478-1.9313 4.5089-3.2388 7.0229-5.2479 10.09-2.4466 3.7346-4.2019 5.8811-7.5167 9.1918-3.6076 3.6033-4.9548 4.6905-8.2368 6.6479-3.8234 2.2803-6.5222 3.4255-10.233 4.3426-3.252 0.8037-6.3313 1.096-9.4576 0.8978-2.1109-0.1336-2.4669-0.184-5.627-0.7923-1.2761-0.2457-2.5443-0.4472-2.8183-0.4478-0.39051 0-0.87566 0.1817-2.2455 0.8439-2.344 1.1335-3.325 1.3528-5.2421 1.1723zm20.635-38.941c0.87856-0.2288 2.0894-0.8803 2.765-1.4878 0.72041-0.6476 1.8598-2.3561 2.0709-3.1049 0.2846-1.01 0.43311-2.4261 0.37297-3.5572-0.0674-1.2683-0.40622-2.4326-1.1034-3.792-0.46327-0.9034-1.5353-2.4798-1.9282-2.8353-0.46368-0.4196-0.30556 0 0.39705 1.0565 0.77052 1.1574 1.4446 2.4943 1.8904 3.7496 0.22384 0.6303 0.26064 0.9537 0.26296 2.3111 4e-3 2.622-0.43886 3.8706-1.9455 5.4793-0.5073 0.5415-0.95489 0.8836-1.5783 1.2061-1.093 0.5652-1.8938 0.7368-3.463 0.7418-1.959 0.011-3.0294-0.4439-5.8621-2.4672-0.55804-0.3986-1.078-0.7265-1.1555-0.7286-0.23911-0.011-0.15627 0.1859 0.1691 0.3928 0.17051 0.1088 0.94415 0.6667 1.7192 1.2399 1.7742 1.3126 2.4565 1.6523 3.9542 1.9685 0.65839 0.1391 2.6156 0.041 3.4344-0.1726zm-0.93785-2.2392c1.283-0.4528 2.3439-1.4201 3.0085-2.7435 0.68497-1.3639 0.81119-3.6578 0.30756-5.5901-1.0618-4.0734-4.2424-6.8446-10.95-9.5407-1.1161-0.4486-2.7189-1.1109-3.5619-1.4718-1.5653-0.6703-3.2339-1.2251-4.4422-1.4769-0.87464-0.1823-2.7886-0.1797-3.4384 0-2.1389 0.6068-3.9547 2.2547-4.8168 4.3716-1.0034 2.4639-0.89719 4.5621 0.32238 6.3666 1.043 1.5432 2.2158 2.0733 5.6893 2.5713 4.5403 0.651 5.6333 1.1027 9.233 3.8155 3.0756 2.318 5.1353 3.6122 6.1163 3.8436 0.79265 0.1868 1.7368 0.1308 2.5327-0.1499zm-19.528-5.6213c0-0.085-0.32558-0.228-0.77666-0.3442-1.9695-0.5074-3.6472-1.6303-4.997-3.3446-1.209-1.5355-1.7174-3.9209-1.2777-5.9955 0.51336-2.4222 2.3283-5.0612 4.1332-6.0096 0.52891-0.278 0.75998-0.457 0.68563-0.5313-0.19266-0.1927-1.5027 0.5269-2.3161 1.2723-0.87097 0.7981-1.9362 2.3461-2.4252 3.5241-1.2224 2.9452-0.80744 5.9689 1.1505 8.3823 1.1586 1.4282 2.8013 2.4627 4.696 2.9574 1.019 0.2662 1.1273 0.2746 1.1273 0.088zm28.75-7.8625c1.1864-0.1431 2.3008-0.4692 3.2615-0.9543 0.9036-0.4564 2.0341-1.2821 2.0341-1.4859 0-0.2278-0.11917-0.1865-0.73313 0.2541-1.332 0.9559-2.7952 1.496-4.7331 1.7475-1.6702 0.2165-3.145 0.023-4.8208-0.6331-0.13344-0.052-0.19728-0.024-0.19728 0.088 0 0.2016 1.0963 0.7102 1.8664 0.8659 1.2207 0.2468 2.0164 0.2748 3.3223 0.1173zm1.1567-3.4766c1.0751-0.2866 2.4132-0.9693 3.2938-1.6807 2.0689-1.6714 3.7761-5.4813 3.7761-8.4271 0-0.7705-0.21301-2.1932-0.40469-2.7031-0.0466-0.124 0.2584 0.1424 0.67783 0.5919 0.72461 0.7765 1.0797 0.9966 1.0797 0.6693 0-0.082-0.15624-0.297-0.34723-0.4791-1.0544-1.0055-2.1278-2.8621-2.7497-4.7559-0.22904-0.6975-0.45998-1.2683-0.51322-1.2683-0.20818 0-0.2087 0.2248-2e-3 0.9694 0.11816 0.4262 0.20253 0.787 0.18751 0.8021-0.0149 0.014-0.21642-0.2207-0.44751-0.5237-0.58406-0.7659-1.9119-2.0047-2.743-2.5592-0.81457-0.5434-2.0667-1.0848-3.2854-1.4206-0.73089-0.2014-1.1892-0.2396-2.9508-0.2454-1.799-0.01-2.2219 0.028-3.0778 0.2446-1.8207 0.461-3.1563 1.2004-4.5165 2.5005-1.9809 1.8934-3.1446 4.6483-3.1457 7.4474-9.7e-4 1.9867 0.45945 3.6196 1.5149 5.3743 0.45524 0.7568 1.8641 2.214 2.8267 2.9235 1.7078 1.2588 4.0061 2.3688 5.5877 2.6984 1.1336 0.2362 4.0947 0.1467 5.2396-0.1583zm-33.401-10.982c0-0.079-0.30039-0.4084-0.66753-0.7316-0.42676-0.3757-0.7772-0.8116-0.97146-1.2088-0.16717-0.3416-0.3457-0.6211-0.39678-0.6211-0.47488 0 0.15272 1.2634 1.032 2.0773 0.66047 0.6116 1.0038 0.7772 1.0038 0.4842zm29.737-23.571c1.8642-0.8986 1.7819-0.8762 4.4045-1.1951 1.2276-0.1494 1.765-0.3173 2.1061-0.6585 0.80875-0.8087-0.19188-1.9284-2.0252-2.2662-2.5156-0.4636-6.4851 0.4358-7.8213 1.7719-0.79503 0.7951-1.1193 1.894-0.75718 2.5664 0.2931 0.5443 0.76121 0.7435 1.6114 0.6854 0.59536-0.041 0.98524-0.1826 2.4817-0.9039z"
         fill="#f0ef2c"
         id="path1921" />
      <path
         d="m610.01 1391.9c0.17051-0.026 0.44953-0.026 0.62005 0 0.17051 0.026 0.0309 0.046-0.31003 0.046-0.34101 0-0.48052-0.022-0.31002-0.046zm16.463-0.7919c0.35878-0.023 0.9168-0.023 1.2401 0 0.32325 0.023 0.0298 0.041-0.65232 0.041-0.68206 0-0.94652-0.019-0.58774-0.041zm-2.1954-0.1067c0.0813-0.032 0.1786-0.028 0.21607 0.01 0.0375 0.038-0.0291 0.065-0.14797 0.06-0.13132-0.01-0.15804-0.032-0.0682-0.068zm5.5239 0c0.0813-0.032 0.17862-0.028 0.21608 0.01 0.0375 0.038-0.0291 0.065-0.14797 0.06-0.13132-0.01-0.15803-0.032-0.0682-0.068zm-24.396-0.853-0.21475-0.2537 0.25365 0.2147c0.23837 0.2019 0.30497 0.2926 0.21476 0.2926-0.0214 0-0.13553-0.1141-0.25366-0.2536zm48.54-11.499c0.64994-0.6667 1.1953-1.2119 1.2119-1.2119 0.0813 0-0.056 0.1444-1.1817 1.2419l-1.2119 1.1819zm-60.64-23.374c5e-3 -0.1313 0.0321-0.1581 0.0682-0.068 0.0325 0.082 0.0285 0.1786-9e-3 0.216-0.0375 0.038-0.0641-0.028-0.0592-0.1479zm-0.10381-1.287c0-0.1551 0.0256-0.2184 0.0569-0.141 0.0313 0.077 0.0313 0.2043 0 0.2819-0.0313 0.077-0.0569 0.014-0.0569-0.1409zm34.425-4.5803c-0.18483-1.6629-0.89575-3.2748-1.9927-4.5179-1.3956-1.5815-2.4549-2.3407-5.1415-3.6846-0.94634-0.4735-1.8214-0.9617-1.9447-1.0848-0.34474-0.3448-0.2882-0.7507 0.14232-1.0218 0.69061-0.4348 2.3447-0.083 4.589 0.9781 3.3846 1.5992 6.266 4.4848 7.4777 7.4886l0.29432 0.7296-0.5173 0.5273c-0.57206 0.5828-1.6128 1.1096-2.3585 1.1936l-0.47511 0.053zm-34.434-0.1078c5e-3 -0.1314 0.0321-0.158 0.0682-0.068 0.0325 0.082 0.0285 0.1784-9e-3 0.2159-0.0375 0.038-0.0641-0.029-0.0592-0.1478zm27.273-3.5843c0-0.024 0.0889-0.1123 0.19728-0.1974 0.17881-0.14 0.18279-0.1361 0.0426 0.043-0.14729 0.1879-0.23985 0.2476-0.23985 0.1548zm-1.1944-1.6766-0.21476-0.2536 0.25364 0.2146c0.13952 0.1181 0.25366 0.2323 0.25366 0.2537 0 0.09-0.0907 0.024-0.29254-0.2147zm-0.75025-0.3847c0.0775-0.031 0.20433-0.031 0.28183 0s0.0141 0.057-0.14091 0.057-0.21842-0.026-0.14092-0.057zm-2.4801-1.4656c0.0775-0.031 0.20433-0.031 0.28183 0s0.0141 0.057-0.14091 0.057-0.21843-0.026-0.14092-0.057zm56.291-5.4023c5e-3 -0.1313 0.0321-0.1579 0.0682-0.068 0.0325 0.082 0.0285 0.1786-9e-3 0.2162-0.0375 0.038-0.0641-0.028-0.0592-0.1479zm-45.581-0.3469c0.0775-0.031 0.20434-0.031 0.28184 0s0.0141 0.057-0.14091 0.057c-0.15502 0-0.21843-0.026-0.14093-0.057zm-0.71529-0.4046-0.21476-0.2536 0.25364 0.2148c0.23838 0.2017 0.30498 0.2925 0.21477 0.2925-0.0214 0-0.13554-0.1141-0.25365-0.2537zm46.418-0.7609c0-0.1551 0.0256-0.2185 0.0569-0.141 0.0313 0.077 0.0313 0.2044 0 0.2819-0.0313 0.077-0.0569 0.013-0.0569-0.1409zm-48.268-0.268c0-0.024 0.0889-0.1122 0.19728-0.1974 0.17881-0.1402 0.18279-0.1362 0.0425 0.043-0.14725 0.1877-0.23984 0.2475-0.23984 0.1547zm13.845-1.9511c0.0813-0.032 0.17862-0.029 0.21608 0.011 0.0375 0.038-0.0291 0.065-0.14796 0.06-0.13133-0.01-0.15804-0.032-0.0682-0.068zm-20.384-0.7545c0-0.024 0.0889-0.1122 0.19728-0.1974 0.1788-0.1401 0.18277-0.1362 0.0425 0.043-0.14727 0.1877-0.23985 0.2475-0.23985 0.1548zm1.24-0.4085c0-0.063 0.0536-0.1127 0.11938-0.1127 0.0657 0 0.0879 0.05 0.0497 0.1127-0.0383 0.063-0.092 0.1128-0.1194 0.1128s-0.0497-0.051-0.0497-0.1128zm-4.5093-0.8317c0-0.024 0.0888-0.1122 0.19728-0.1973 0.17882-0.1402 0.18279-0.1362 0.0425 0.043-0.14727 0.1877-0.23986 0.2474-0.23986 0.1546zm28.522-0.2393c0.14562-0.1549 0.29013-0.2816 0.32114-0.2816 0.0309 0-0.0628 0.1267-0.20841 0.2816-0.14561 0.1551-0.29013 0.2818-0.32114 0.2818-0.0309 0 0.0628-0.1267 0.20841-0.2818zm-29.776-0.028c-0.14022-0.1788-0.13625-0.1828 0.0425-0.043 0.1085 0.085 0.19728 0.1739 0.19728 0.1974 0 0.093-0.0926 0.032-0.23984-0.1548zm59.33-1.9446c0-0.155 0.0256-0.2185 0.0569-0.1409 0.0313 0.077 0.0313 0.2043 0 0.2817-0.0313 0.077-0.0569 0.014-0.0569-0.1408zm-0.23437-2.6587c5e-3 -0.1314 0.0321-0.158 0.0682-0.068 0.0325 0.082 0.0285 0.1784-9e-3 0.2158-0.0375 0.038-0.0641-0.029-0.0592-0.1478zm-58.659-2.8272c0.0775-0.031 0.20433-0.031 0.28183 0s0.0141 0.058-0.14091 0.058c-0.15502 0-0.21843-0.026-0.14092-0.058zm1.2401 0c0.0775-0.031 0.20433-0.031 0.28183 0s0.0141 0.058-0.14092 0.058c-0.15501 0-0.21843-0.026-0.14091-0.058zm9.8538-0.1508c0-0.1551 0.0256-0.2184 0.0569-0.141 0.0313 0.077 0.0313 0.2044 0 0.2819-0.0313 0.077-0.0569 0.014-0.0569-0.1409zm0-1.5783c0-0.1549 0.0256-0.2183 0.0569-0.1408 0.0313 0.077 0.0313 0.2042 0 0.2818-0.0313 0.077-0.0569 0.014-0.0569-0.141zm-17.28-0.761c-0.14021-0.1786-0.13623-0.1827 0.0426-0.043 0.10852 0.085 0.19728 0.1737 0.19728 0.1972 0 0.093-0.0926 0.032-0.23985-0.1547zm30.696-4.0865c0-0.155 0.0256-0.2184 0.0569-0.141 0.0313 0.077 0.0313 0.2044 0 0.2818-0.0312 0.077-0.0569 0.014-0.0569-0.1408zm1.3206-0.4228c-0.14021-0.1787-0.13625-0.1827 0.0426-0.043 0.18779 0.1473 0.2475 0.2399 0.15472 0.2399-0.0234 0-0.11218-0.088-0.19729-0.1974zm3.8329-0.1128c-0.14021-0.1787-0.13624-0.1827 0.0426-0.043 0.18777 0.1471 0.2475 0.2398 0.15471 0.2398-0.0234 0-0.11218-0.089-0.19729-0.1973zm-38.618-1.4373c9.7e-4 -0.372 0.0216-0.5107 0.0467-0.3079 0.0251 0.2026 0.0246 0.507-9.7e-4 0.6763-0.0257 0.1694-0.0462 0-0.0457-0.3684zm37.491 0.3101c-0.14021-0.1788-0.13623-0.1829 0.0426-0.043 0.1878 0.1473 0.24752 0.2398 0.15473 0.2398-0.0234 0-0.11218-0.089-0.19729-0.1971zm-18.352-0.2067c5e-3 -0.1313 0.0321-0.1581 0.0682-0.068 0.0325 0.082 0.0285 0.1787-9e-3 0.2161-0.0375 0.038-0.0641-0.028-0.0592-0.1479zm-1.827-6.4446c-0.14022-0.1788-0.13624-0.1828 0.0426-0.043 0.18778 0.1472 0.2475 0.2398 0.15471 0.2398-0.0234 0-0.11218-0.089-0.19728-0.1973zm-0.78913-0.7891c-0.14023-0.1789-0.13624-0.1829 0.0426-0.043 0.1085 0.086 0.19729 0.174 0.19729 0.1974 0 0.093-0.0926 0.032-0.23985-0.1546zm-5.418-2.5854c0.0813-0.032 0.17861-0.029 0.21606 0.01 0.0375 0.038-0.0291 0.065-0.14795 0.06-0.13134-0.011-0.15804-0.032-0.0682-0.068zm-2.2336-1.1067c0.14562-0.155 0.29012-0.2818 0.32113-0.2818 0.0311 0-0.0627 0.1268-0.20839 0.2818-0.14562 0.155-0.29014 0.2818-0.32113 0.2818-0.0309 0 0.0627-0.1268 0.20839-0.2818zm1.4655-1.4518c0-0.024 0.0889-0.1122 0.19728-0.1972 0.1788-0.1402 0.18279-0.1362 0.0425 0.043-0.14727 0.1879-0.23985 0.2475-0.23985 0.1547zm47.672-0.1547c-0.14022-0.1787-0.13623-0.1827 0.0426-0.043 0.18777 0.1472 0.24748 0.2398 0.1547 0.2398-0.0234 0-0.11216-0.089-0.19728-0.1972zm-20.412-10.477c0.0813-0.032 0.17862-0.028 0.21609 0.011 0.0375 0.038-0.0291 0.065-0.14796 0.059-0.13135-0.01-0.15805-0.032-0.0682-0.068zm-2.3744-0.1173c0.20151-0.025 0.53126-0.025 0.73277 0s0.0366 0.046-0.36638 0.046c-0.40302 0-0.56789-0.021-0.36639-0.046z"
         fill="#a34b5d"
         id="path1923" />
      <path
         d="m609.67 1391.4c0.10852-0.028 0.28607-0.028 0.39457 0 0.10851 0.029 0.0198 0.051-0.19728 0.051-0.217 0-0.30579-0.024-0.19729-0.051zm1.0168 0c0.1097-0.028 0.26189-0.027 0.33819 0 0.0764 0.03-0.0134 0.054-0.19942 0.051-0.186 0-0.24844-0.028-0.13877-0.056zm14.935-0.7905c0.13951-0.027 0.3678-0.027 0.5073 0 0.13951 0.027 0.0254 0.048-0.25365 0.048-0.27901 0-0.39315-0.023-0.25365-0.048zm2.4815 0c0.14023-0.027 0.34315-0.026 0.45095 0 0.10777 0.028-7e-3 0.049-0.25498 0.048-0.24802 0-0.3362-0.025-0.19597-0.051zm-4.0527-0.11c0.0813-0.032 0.17862-0.029 0.21608 0.011 0.0375 0.038-0.0291 0.065-0.14796 0.06-0.13135-0.011-0.15805-0.032-0.0682-0.068zm5.8621 0c0.0813-0.032 0.17863-0.029 0.21608 0.011 0.0375 0.038-0.0291 0.065-0.14796 0.06-0.13134-0.011-0.15805-0.032-0.0682-0.068zm-26.556-7.1949c1e-3 -0.2481 0.0243-0.3362 0.0513-0.196 0.027 0.1403 0.0259 0.3432-2e-3 0.451-0.0281 0.1077-0.0502-0.01-0.049-0.255zm46.305-1.2263c0-0.024 0.0888-0.1122 0.19729-0.1974 0.1788-0.1402 0.18278-0.1362 0.0426 0.043-0.14728 0.1879-0.23985 0.2476-0.23985 0.1547zm1.2401-1.1411c0.14561-0.1551 0.29013-0.2819 0.32113-0.2819 0.0311 0-0.0628 0.1268-0.2084 0.2819-0.14562 0.1551-0.29013 0.2818-0.32112 0.2818-0.0311 0 0.0628-0.1267 0.20839-0.2818zm-47.226-0.3477c5e-3 -0.1314 0.0321-0.1579 0.0682-0.068 0.0325 0.082 0.0285 0.1786-9e-3 0.2161-0.0375 0.038-0.0641-0.029-0.0592-0.148zm0.0131-1.907c2e-3 -0.186 0.0276-0.2484 0.0561-0.1388 0.0285 0.1097 0.0268 0.2619-4e-3 0.3382-0.0309 0.076-0.0544-0.013-0.052-0.1994zm-0.46401-0.573c5e-3 -0.1314 0.0321-0.1582 0.0682-0.068 0.0325 0.082 0.0285 0.1786-9e-3 0.216-0.0375 0.038-0.0641-0.028-0.0592-0.1479zm52.243-1.7381c0.11224-0.124 0.22942-0.2254 0.26042-0.2254s-0.0354 0.1014-0.14769 0.2254c-0.11221 0.1241-0.22941 0.2255-0.2604 0.2255-0.0309 0 0.0354-0.1014 0.14767-0.2255zm-61.713-21.034c5e-3 -0.1313 0.0321-0.158 0.0682-0.068 0.0325 0.082 0.0285 0.1787-9e-3 0.2161-0.0375 0.038-0.0641-0.028-0.0592-0.1479zm-0.10381-1.1742c0-0.1551 0.0256-0.2185 0.0569-0.1409 0.0312 0.077 0.0312 0.2042 0 0.2817-0.0313 0.077-0.0569 0.014-0.0569-0.1408zm33.436-1.5402c0.0775-0.031 0.20434-0.031 0.28184 0s0.0141 0.058-0.14092 0.058c-0.155 0-0.21842-0.026-0.14092-0.058zm0.84551 0c0.1085-0.029 0.28605-0.029 0.39457 0 0.1085 0.028 0.0197 0.052-0.19729 0.052-0.21701 0-0.3058-0.024-0.19728-0.052zm0.5073-0.4479c0.0775-0.031 0.20433-0.031 0.28184 0 0.0775 0.031 0.0141 0.057-0.14093 0.057-0.155 0-0.21842-0.026-0.14091-0.057zm-34.889-0.4889c0-0.279 0.022-0.3932 0.0488-0.2537 0.0269 0.1394 0.0269 0.3677 0 0.5072-0.0269 0.1396-0.0488 0.026-0.0488-0.2535zm39.088-1.2965c0.21034-0.2172 0.4078-0.3946 0.43879-0.3946 0.0311 0-0.11571 0.1774-0.32605 0.3946-0.21035 0.217-0.40779 0.3945-0.43879 0.3945-0.0311 0 0.11571-0.1775 0.32605-0.3945zm-12.011-1.1913c-0.041-0.067-0.0501-0.1443-0.0206-0.1739 0.0297-0.03 0.0838 0.025 0.1205 0.1203 0.0763 0.1986 0.0112 0.2335-0.0999 0.054zm10.207-0.1615c0.1456-0.155 0.29012-0.2818 0.32113-0.2818 0.031 0-0.0628 0.1268-0.20841 0.2818-0.14561 0.1549-0.29012 0.2818-0.32113 0.2818-0.031 0 0.0628-0.1269 0.20841-0.2818zm-37.184-0.056c0-0.155 0.0256-0.2184 0.0569-0.141 0.0312 0.077 0.0312 0.2045 0 0.282-0.0313 0.077-0.0569 0.014-0.0569-0.141zm0.10381-1.0803c5e-3 -0.1314 0.0321-0.1582 0.0682-0.068 0.0325 0.082 0.0285 0.1787-9e-3 0.2162-0.0375 0.038-0.0641-0.029-0.0592-0.148zm41.035-3.2694c5e-3 -0.1313 0.0321-0.158 0.0682-0.068 0.0325 0.082 0.0285 0.1787-9e-3 0.2162-0.0375 0.038-0.0641-0.03-0.0592-0.1481zm-25.508-0.011c0.0813-0.032 0.17861-0.029 0.21607 0.011 0.0375 0.038-0.0291 0.065-0.14796 0.06-0.13134-0.011-0.15804-0.032-0.0682-0.068zm23.385-0.4303c1e-3 -0.248 0.0243-0.3363 0.0513-0.196s0.0259 0.3432-2e-3 0.4509c-0.0282 0.1079-0.0504-0.01-0.049-0.2549zm-28.331-1.9446-0.3885-0.4229 0.42275 0.3886c0.39348 0.3616 0.47458 0.457 0.3885 0.457-0.0188 0-0.20909-0.1903-0.42275-0.4227zm67.317-3.3633c5e-3 -0.1313 0.0321-0.158 0.0682-0.068 0.0325 0.082 0.0285 0.1786-9e-3 0.2161-0.0375 0.038-0.0641-0.028-0.0592-0.1481zm0.22548-2.0292c5e-3 -0.1314 0.0321-0.1579 0.0682-0.068 0.0325 0.082 0.0285 0.1785-9e-3 0.2161-0.0375 0.038-0.0641-0.028-0.0592-0.1481zm-35.605-0.1247c0.1085-0.029 0.28608-0.029 0.39458 0 0.1085 0.028 0.0198 0.052-0.19729 0.052-0.21701 0-0.30578-0.024-0.19729-0.052zm0.84683 0c0.14023-0.028 0.34314-0.026 0.45092 0 0.1078 0.028-7e-3 0.05-0.25496 0.048-0.248 0-0.3362-0.025-0.19596-0.05zm-1.4598-0.4483c0.0813-0.032 0.17861-0.028 0.21608 0.011 0.0375 0.038-0.0291 0.065-0.14797 0.06-0.13132-0.011-0.15804-0.031-0.0682-0.068zm2.142 0c0.0813-0.032 0.17861-0.028 0.21606 0.011 0.0375 0.038-0.0291 0.065-0.14796 0.06-0.13134-0.011-0.15805-0.031-0.0682-0.068zm34.201-0.7684c2e-3 -0.186 0.0276-0.2485 0.0561-0.1389 0.0285 0.1098 0.0268 0.262-4e-3 0.3382-0.0309 0.076-0.0543-0.013-0.052-0.1993zm-37.02-2.0499c0.0813-0.032 0.17861-0.028 0.21608 0.011 0.0375 0.038-0.0291 0.065-0.14797 0.059-0.13133-0.01-0.15804-0.032-0.0682-0.068zm2.7056 0c0.0813-0.032 0.17861-0.028 0.21608 0.011 0.0375 0.038-0.0291 0.065-0.14796 0.059-0.13134-0.01-0.15805-0.032-0.0682-0.068zm34.446-1.6704c0-0.62 0.0192-0.8592 0.042-0.5315 0.0229 0.3275 0.0226 0.8347 0 1.1272-0.0232 0.2924-0.0418 0.025-0.0416-0.5957zm-28.957-0.7327c0.24218-0.248 0.46569-0.4509 0.49669-0.4509 0.0311 0-0.14179 0.2029-0.38395 0.4509-0.24219 0.248-0.4657 0.4509-0.49669 0.4509-0.0311 0 0.14178-0.2029 0.38395-0.4509zm-39.062-0.6062c0-0.024 0.0889-0.1122 0.19728-0.1973 0.17881-0.1403 0.18278-0.1362 0.0426 0.043-0.14728 0.1878-0.23985 0.2475-0.23985 0.1547zm0.90187-0.4648c0.21033-0.2169 0.40779-0.3945 0.43879-0.3945 0.0309 0-0.11572 0.1776-0.32606 0.3945-0.21034 0.217-0.40779 0.3945-0.43879 0.3945-0.0309 0 0.11572-0.1775 0.32606-0.3945zm22.032-0.6482-0.33111-0.3663 0.36639 0.331c0.20151 0.1821 0.36638 0.347 0.36638 0.3664 0 0.087-0.093 0.011-0.40166-0.3311zm-22.032 0.2111c0-0.024 0.0887-0.1123 0.19728-0.1973 0.17882-0.1402 0.18278-0.1362 0.0426 0.043-0.14727 0.1878-0.23985 0.2474-0.23985 0.1547zm6.2869-0.3774c0.20265-0.026 0.50702-0.025 0.67641 0 0.1694 0.026 4e-3 0.046-0.3684 0.046-0.37202 0-0.51062-0.022-0.30801-0.046zm60.695-0.5945c0-0.1552 0.0256-0.2185 0.0569-0.1411 0.0313 0.077 0.0313 0.2044 0 0.2819-0.0313 0.077-0.0569 0.014-0.0569-0.1408zm-64.84-0.2323c-0.10161-0.066-0.11551-0.11-0.0348-0.111 0.0738 0 0.16563 0.048 0.20394 0.111 0.0865 0.1399 0.0475 0.1399-0.1691 0zm64.718-1.1931c5e-3 -0.1314 0.0321-0.158 0.0682-0.068 0.0325 0.082 0.0285 0.1786-9e-3 0.216-0.0375 0.038-0.0641-0.028-0.0592-0.1478zm-25.478-3.1566c5e-3 -0.1314 0.0321-0.158 0.0682-0.068 0.0325 0.082 0.0285 0.1784-9e-3 0.2161-0.0375 0.038-0.0641-0.028-0.0592-0.148zm-32.223-0.2374c0.1085-0.028 0.28607-0.028 0.39456 0 0.10851 0.028 0.0198 0.05-0.19728 0.05-0.21702 0-0.30578-0.024-0.19728-0.05zm-1.4021-0.112c0.0813-0.032 0.17863-0.028 0.21608 0.01 0.0375 0.038-0.0291 0.065-0.14796 0.06-0.13134-0.01-0.15805-0.032-0.0682-0.068zm11.439-1.2194c9.6e-4 -0.3101 0.0227-0.4235 0.0487-0.2522 0.026 0.1714 0.0252 0.4251-2e-3 0.5637-0.0268 0.1387-0.048 0-0.0473-0.3115zm22.185-0.2349c5e-3 -0.1313 0.0321-0.1581 0.0682-0.068 0.0325 0.082 0.0285 0.1787-9e-3 0.2161-0.0375 0.038-0.0641-0.029-0.0592-0.148zm-40.66-0.3007-0.21477-0.2536 0.25365 0.2147c0.23837 0.2019 0.30498 0.2927 0.21476 0.2927-0.0214 0-0.13552-0.1142-0.25364-0.2538zm10.608-0.085c0.11222-0.124 0.22941-0.2255 0.2604-0.2255 0.031 0-0.0354 0.1014-0.14766 0.2255-0.11224 0.1239-0.22942 0.2253-0.26042 0.2253s0.0354-0.1014 0.14768-0.2253zm29.593-1.6977c0-0.066 0.0508-0.087 0.11274-0.049 0.062 0.039 0.11273 0.092 0.11273 0.1195 0 0.028-0.0508 0.049-0.11273 0.049-0.062 0-0.11274-0.054-0.11274-0.1194zm-3.7346-5.4891c-0.14022-0.1789-0.13623-0.1829 0.0426-0.043 0.1085 0.085 0.19727 0.1739 0.19727 0.1972 0 0.093-0.0926 0.032-0.23985-0.1547zm-18.001-0.1973c2e-3 -0.1861 0.0276-0.2486 0.0561-0.1387 0.0285 0.1095 0.0268 0.2617-4e-3 0.3381-0.0309 0.076-0.0543-0.013-0.052-0.1994zm-4e-3 -0.9583c0-0.1551 0.0256-0.2184 0.0569-0.141 0.0313 0.077 0.0313 0.2044 0 0.2819-0.0313 0.077-0.0569 0.014-0.0569-0.1409zm9.3179-1.317c0.0813-0.033 0.17862-0.028 0.21607 0.01 0.0375 0.038-0.0291 0.065-0.14796 0.06-0.13133-0.01-0.15804-0.032-0.0682-0.068zm2.7056 0c0.0813-0.033 0.17863-0.028 0.21608 0.01 0.0375 0.038-0.0291 0.065-0.14795 0.06-0.13135-0.01-0.15805-0.032-0.0682-0.068zm-14.987-4.968c-0.14023-0.1786-0.13624-0.1826 0.0425-0.043 0.18777 0.1473 0.24751 0.2399 0.1547 0.2399-0.0234 0-0.11218-0.089-0.19728-0.1974zm-4.3822-2.3954c-0.10151-0.066-0.11549-0.1102-0.0348-0.1111 0.0738 0 0.16562 0.048 0.20393 0.1111 0.0865 0.1399 0.0476 0.1399-0.1691 0zm-1.9447-0.3001c0.0775-0.031 0.20433-0.031 0.28185 0 0.0775 0.031 0.0141 0.058-0.14092 0.058-0.15501 0-0.21842-0.026-0.14093-0.058zm1.2471-0.1151c0.0813-0.033 0.17862-0.029 0.21608 0.01 0.0375 0.038-0.0291 0.065-0.14797 0.06-0.13133-0.011-0.15804-0.032-0.0682-0.068zm-1.5571-0.994c0.21034-0.2171 0.4078-0.3946 0.4388-0.3946s-0.11572 0.1775-0.32607 0.3946c-0.21033 0.217-0.40779 0.3945-0.43878 0.3945-0.0311 0 0.1157-0.1775 0.32605-0.3945zm5.0968 0.1014c-0.08-0.087-0.0956-0.1578-0.0348-0.1578 0.11706 0 0.28653 0.2144 0.21965 0.278-0.0217 0.021-0.10486-0.033-0.18482-0.1202zm-3.6876-1.3978c0.11223-0.1241 0.22942-0.2255 0.26042-0.2255 0.0311 0-0.0354 0.1014-0.14768 0.2255-0.11223 0.1238-0.22942 0.2255-0.26042 0.2255s0.0354-0.1014 0.14768-0.2255zm45.595-0.1974-0.3885-0.4227 0.42275 0.3884c0.3935 0.3617 0.47459 0.4572 0.3885 0.4572-0.0188 0-0.20907-0.1904-0.42275-0.4229zm-0.32323-0.9958c5e-3 -0.1313 0.0321-0.158 0.0682-0.068 0.0325 0.082 0.0285 0.1785-9e-3 0.2161-0.0375 0.038-0.0641-0.028-0.0592-0.1481zm-3.0566-6.1063-0.6162-0.6483 0.64822 0.6162c0.35653 0.3389 0.64823 0.6306 0.64823 0.6482 0 0.084-0.10779-0.014-0.68025-0.6161zm-1.7737-2.2829c0-0.217 0.0232-0.3058 0.0515-0.1973 0.0283 0.1086 0.0283 0.2861 0 0.3946-0.0282 0.1085-0.0515 0.02-0.0515-0.1973zm-2.5274 0.036c0.0813-0.033 0.17862-0.029 0.21609 0.01 0.0375 0.038-0.0291 0.065-0.14797 0.06-0.13134-0.01-0.15805-0.032-0.0682-0.068zm-16.121-0.2254c0.0813-0.032 0.17862-0.028 0.21608 0.01 0.0375 0.038-0.0291 0.065-0.14797 0.06-0.13132-0.01-0.15804-0.032-0.0682-0.068zm4.6221 0c0.0813-0.032 0.17861-0.028 0.21607 0.01 0.0375 0.038-0.0291 0.065-0.14795 0.06-0.13134-0.01-0.15806-0.032-0.0682-0.068zm-2.8254-0.1189c0.32553-0.024 0.8582-0.024 1.1837 0 0.32552 0.023 0.0592 0.042-0.59184 0.042s-0.91737-0.018-0.59187-0.042z"
         fill="#649825"
         id="path1925" />
      <path
         d="m627.55 1352.6c0.0813-0.032 0.17861-0.028 0.21608 0.01 0.0375 0.038-0.0291 0.065-0.14797 0.06-0.13132-0.01-0.15804-0.032-0.0682-0.069zm-34.007-0.2613c0-0.155 0.0256-0.2184 0.0569-0.1409 0.0313 0.077 0.0313 0.2043 0 0.2817-0.0313 0.077-0.0569 0.014-0.0569-0.1408zm4e-3 -1.4093c2e-3 -0.1859 0.0276-0.2484 0.0561-0.1386 0.0285 0.1095 0.0268 0.2619-4e-3 0.3382-0.031 0.076-0.0543-0.013-0.052-0.1996zm41.247-5.9841c5e-3 -0.1313 0.0321-0.158 0.0682-0.068 0.0325 0.082 0.0285 0.1787-9e-3 0.2161-0.0375 0.038-0.0641-0.029-0.0592-0.148zm0-0.6764c5e-3 -0.1314 0.0321-0.1581 0.0682-0.068 0.0325 0.082 0.0285 0.1787-9e-3 0.2161-0.0375 0.038-0.0641-0.029-0.0592-0.148zm-28.77-3.5137c-0.14023-0.1787-0.13623-0.1827 0.0426-0.043 0.10851 0.085 0.19728 0.1738 0.19728 0.1971 0 0.093-0.0925 0.033-0.23985-0.1547zm-3.7924-4.1992c0-0.217 0.0232-0.3058 0.0515-0.1972 0.0283 0.1084 0.0283 0.286 0 0.3945-0.0283 0.1086-0.0515 0.02-0.0515-0.1973zm69.891-3.4383c2e-3 -0.1861 0.0276-0.2485 0.0561-0.1388 0.0285 0.1096 0.0268 0.2618-4e-3 0.3381-0.0309 0.076-0.0542-0.013-0.052-0.1993zm-35.787-0.024c0.13951-0.027 0.3678-0.027 0.50731 0 0.13952 0.027 0.0253 0.048-0.25365 0.048-0.27901 0-0.39315-0.022-0.25366-0.048zm35.774-2.579c5e-3 -0.1314 0.0321-0.1581 0.0682-0.068 0.0325 0.082 0.0285 0.1787-9e-3 0.2161-0.0375 0.038-0.0641-0.03-0.0592-0.148zm-67.649-0.4278c0-0.024 0.0888-0.1122 0.1973-0.1972 0.1788-0.1402 0.18277-0.1363 0.0425 0.043-0.14728 0.1878-0.23986 0.2475-0.23986 0.1547zm22.931-1.0001-0.21476-0.2537 0.25366 0.2147c0.23836 0.2017 0.30498 0.2926 0.21476 0.2926-0.0214 0-0.13554-0.1141-0.25366-0.2536zm20.007-7.9478c-0.14022-0.1787-0.13624-0.1828 0.0425-0.043 0.10851 0.085 0.19728 0.1737 0.19728 0.1971 0 0.093-0.0926 0.032-0.23985-0.1546zm-2.9731-4.0865c-0.0383-0.063-0.016-0.1129 0.0496-0.1129 0.0657 0 0.11939 0.051 0.11939 0.1129 0 0.063-0.0224 0.1126-0.0497 0.1126-0.0274 0-0.081-0.05-0.11939-0.1126zm-20.218-3.1567c0-0.1549 0.0256-0.2184 0.0569-0.1409 0.0313 0.077 0.0313 0.2044 0 0.2819-0.0313 0.077-0.0569 0.014-0.0569-0.141zm-10.22-9.9205c0.11224-0.1241 0.22942-0.2256 0.26041-0.2256 0.0311 0-0.0354 0.1014-0.14767 0.2256-0.11224 0.1241-0.22943 0.2254-0.26042 0.2254-0.031 0 0.0354-0.1014 0.14768-0.2254zm40.281-11.463c0.0813-0.032 0.17859-0.029 0.21607 0.01 0.0375 0.038-0.0291 0.065-0.14796 0.06-0.13133-0.01-0.15804-0.032-0.0681-0.069zm1.6977-1.4731c-0.14022-0.1789-0.13623-0.1829 0.0425-0.043 0.10851 0.086 0.19728 0.1739 0.19728 0.1973 0 0.093-0.0926 0.032-0.23986-0.1547z"
         fill="#4d7d1c"
         id="path1927" />
      <path
         d="m605.69 1389.8c-0.14022-0.1788-0.13624-0.1829 0.0426-0.043 0.10851 0.085 0.19729 0.1738 0.19729 0.1973 0 0.093-0.0926 0.032-0.23985-0.1547zm-2.0059-9.6761c5e-3 -0.1316 0.0321-0.1582 0.0682-0.069 0.0325 0.082 0.0285 0.1786-9e-3 0.216-0.0375 0.038-0.0641-0.028-0.0592-0.1479zm0-0.7893c5e-3 -0.1314 0.0321-0.158 0.0682-0.068 0.0325 0.082 0.0285 0.1786-9e-3 0.2161-0.0375 0.038-0.0641-0.028-0.0592-0.1479zm50.101-1.1743c0.43068-0.434 0.80845-0.7891 0.83945-0.7891 0.0311 0-0.29603 0.3551-0.72673 0.7891s-0.80845 0.7891-0.83946 0.7891c-0.0311 0 0.29604-0.3551 0.72674-0.7891zm-60.247-25.431c5e-3 -0.1312 0.0321-0.158 0.0682-0.068 0.0325 0.082 0.0285 0.1787-9e-3 0.2161-0.0375 0.038-0.0641-0.029-0.0592-0.148zm39.335-2.006c0-0.024 0.0888-0.1122 0.19728-0.1974 0.17881-0.1401 0.18278-0.1362 0.0426 0.043-0.14728 0.1878-0.23985 0.2476-0.23985 0.1547zm-39.326-0.2956c0-0.155 0.0256-0.2185 0.0569-0.1409 0.0313 0.077 0.0313 0.2042 0 0.2817-0.0313 0.077-0.0569 0.014-0.0569-0.1408zm33.52-0.5129c-0.062-0.017-0.24324-0.06-0.40274-0.094-0.24117-0.053-0.3126-0.1612-0.4243-0.6451-0.19383-0.8398-0.75602-1.9533-1.1561-2.29-0.39869-0.3355-1.1574-0.398-1.5183-0.125-0.30754 0.2326-0.35036 0.2173-0.48716-0.1752-0.0666-0.1913-0.30535-0.5987-0.53037-0.9053-0.61154-0.833-1.2148-1.072-1.8584-0.7362-0.28338 0.1479-0.29369 0.1398-0.47379-0.3672-0.1013-0.2852-0.38775-0.7171-0.637-0.9605-0.47964-0.4684-0.81617-0.5468-1.5588-0.3632-0.31858 0.078-0.36638 0.063-0.36638-0.1278 0-0.2407-0.48686-1.0126-0.77543-1.2296-0.48167-0.3621-1.1568-0.2417-1.7673 0.315-0.22934 0.2092-0.23407 0.2064-0.46911-0.2773-0.27861-0.5735-0.78322-0.8622-1.5072-0.8622-0.44783 0-1.4527 0.376-1.4584 0.5456-1e-3 0.041-0.0913 0.1897-0.19965 0.3306l-0.19715 0.2561-1.3504-0.2274c-2.3822-0.4014-3.6145-1.1963-4.4336-2.8601-0.64623-1.3127-0.71617-2.2134-0.30002-3.8643 0.42809-1.6982 0.93837-2.6363 2.0198-3.713 1.2632-1.2575 2.5934-1.8535 4.137-1.8535h0.75994l0.1334 0.4042c0.17306 0.5244 0.74177 1.1671 1.2033 1.36 0.61046 0.255 0.92189 0.1923 1.3951-0.2808l0.43315-0.4333 0.17206 0.5051c0.51058 1.4984 1.9065 2.058 2.7468 1.1011l0.33409-0.3805 0.0673 0.4211c0.0791 0.4948 0.44943 1.0763 0.89642 1.4075 0.45513 0.3373 1.4401 0.3312 1.7822-0.012l0.24664-0.2465 0.34836 0.5804c0.67253 1.1207 1.943 1.644 2.6759 1.1021 0.18665-0.138 0.34977-0.2338 0.36244-0.2128 0.0127 0.022 0.0969 0.1843 0.18717 0.3629 0.0902 0.1787 0.35783 0.5449 0.59462 0.8139 0.65259 0.7413 1.4044 0.8709 2.1267 0.3662l0.30004-0.2095 0.91354 0.8593c2.0025 1.8838 3.0142 4.0359 3.135 6.6688 0.0667 1.453-0.0744 2.3735-0.50368 3.2827l-0.28666 0.6073-0.24734-0.6073c-0.89453-2.1964-3.1364-4.7895-5.4711-6.3281-1.0778-0.7103-3.078-1.6875-4.1824-2.0433-2.1964-0.7074-3.5962-0.384-3.5962 0.8307 0 0.6179 0.31544 0.8657 2.5737 2.0229 2.3164 1.187 3.6404 2.1326 4.7522 3.3945 1.1172 1.2677 1.6768 2.4475 1.9275 4.063 0.12787 0.8241 0.12332 0.8816-0.0657 0.8295zm45.055-16.284c0-0.1549 0.0256-0.2183 0.0569-0.1408 0.0313 0.077 0.0313 0.2042 0 0.2818-0.0313 0.077-0.0569 0.014-0.0569-0.141zm0-3.4947c0-0.155 0.0256-0.2185 0.0569-0.141 0.0313 0.077 0.0313 0.2045 0 0.2819-0.0313 0.077-0.0569 0.014-0.0569-0.1409zm-26.033-7.1022c0-0.2172 0.0232-0.3058 0.0515-0.1973s0.0283 0.286 0 0.3945c-0.0283 0.1086-0.0515 0.02-0.0515-0.1972zm-30.108-0.3381c0-0.1551 0.0256-0.2185 0.0569-0.141 0.0313 0.077 0.0313 0.2043 0 0.2818-0.0313 0.077-0.0569 0.014-0.0569-0.1408zm18.893-10.226c0.1395-0.027 0.36779-0.027 0.50729 0 0.13951 0.027 0.0254 0.048-0.25365 0.048-0.27901 0-0.39315-0.023-0.25364-0.048zm-0.7821-0.3358c0.0813-0.032 0.17863-0.029 0.21609 0.011 0.0375 0.038-0.0291 0.065-0.14796 0.06-0.13133-0.011-0.15805-0.033-0.0682-0.068zm-20.045-8.7516c0-0.019 0.16488-0.1842 0.36638-0.3662l0.36639-0.3312-0.33112 0.3664c-0.30863 0.3416-0.40165 0.4182-0.40165 0.331zm48.123-1.5147c-0.14021-0.1787-0.13623-0.1828 0.0426-0.043 0.1085 0.086 0.19728 0.1738 0.19728 0.1973 0 0.093-0.0926 0.032-0.23986-0.1547zm-7.5599-9.3494c0.0813-0.032 0.17861-0.029 0.21607 0.011 0.0375 0.038-0.0291 0.065-0.14796 0.06-0.13133-0.011-0.15804-0.033-0.0682-0.068z"
         fill="#315d0b"
         id="path1929" />
      <path
         d="m608.42 1391.7c-1.9901-0.4494-3.2178-1.4841-4.2208-3.5573-1.0665-2.2046-1.4135-4.3106-1.0487-6.3648l0.18016-1.0144-0.39047-0.8223c-0.49576-1.0438-1.4468-2.4606-3.043-4.533-2.1408-2.7794-2.9697-4.163-3.8263-6.387-0.93088-2.4167-1.9424-7.3515-2.5613-12.496-0.36713-3.0514-0.36656-6.9356 1e-3 -9.4132 0.6957-4.6851 2.0093-9.8409 4.1355-16.232 1.6591-4.9871 3.5797-9.2768 5.5911-12.487l1.0375-1.656 0.0206-1.8633c0.017-1.5324 0.0629-2.0032 0.25934-2.6523 0.57798-1.911 1.8889-3.9261 3.3876-5.2073 0.98557-0.8425 2.6217-1.6905 4.0137-2.0804l0.90185-0.2524 1.5219-1.4772c1.873-1.8179 2.5279-2.3762 4.1455-3.5341 5.1456-3.6833 11.411-6.3326 17.681-7.4762 1.0951-0.1998 1.7945-0.2464 3.8206-0.2545 2.6911-0.011 4.1866 0.1612 5.7722 0.6636l0.81192 0.2573 0.59727-0.5131c1.5666-1.3463 3.6254-2.3983 5.1025-2.6075 1.3434-0.1903 2.8807 0.2054 3.7761 0.9719 0.60704 0.5196 0.7937 0.96 0.7937 1.8726 0 0.6354 0.0293 0.7317 0.25364 0.8341 0.86228 0.3939 2.3958 2.0406 3.2371 3.4761 0.5167 0.8817 1.1722 2.785 1.3565 3.9392 0.1121 0.7016 0.17247 0.8184 0.72295 1.3983 1.8486 1.9474 3.2502 4.0508 4.9618 7.4467 2.732 5.4205 3.9677 9.477 4.6848 15.38 0.62533 5.1475 0.60908 9.091-0.0593 14.388-0.63667 5.0452-1.4542 8.5223-3.2334 13.752-2.3942 7.037-4.9858 12.527-8.1148 17.191-2.1324 3.1781-3.8159 5.249-6.453 7.9373-3.7887 3.8625-5.5945 5.3441-9.0243 7.4042-4.103 2.4643-7.6318 3.8879-11.692 4.7164-2.4718 0.5045-3.2681 0.5753-6.4582 0.5742-3.3464 0-3.777-0.045-7.2779-0.7425-1.2675-0.2526-2.5388-0.4645-2.8252-0.471-0.42776-0.01-0.78999 0.1212-2.0292 0.7331-2.2096 1.091-2.7046 1.2359-4.3832 1.2825-0.95025 0.027-1.643-0.013-2.1272-0.1229zm4.2128-0.5424c0.43403-0.1532 1.4455-0.6015 2.2477-0.9962 1.7854-0.8787 1.7966-0.8793 5.0351-0.2347 3.5196 0.7004 4.0255 0.7532 7.2035 0.751 3.0753 0 4.2815-0.1228 6.7077-0.6708 4.1532-0.938 7.1242-2.1527 11.143-4.5562 2.8394-1.6981 4.3509-2.8608 6.9386-5.3378 3.4836-3.3342 5.1787-5.2626 7.5782-8.6211 3.6237-5.0718 6.5462-11.141 9.2158-19.138 2.0249-6.0656 3.1121-11.757 3.4217-17.914 0.37517-7.4605-0.93724-15.486-3.4945-21.369-0.7622-1.7534-2.5871-5.3168-3.3483-6.5382-2.158-3.4623-4.695-5.9828-7.2393-7.1923-0.95489-0.4538-0.89456-0.6283 0.0898-0.2597 0.54967 0.2056 2.1525 1.1913 2.9484 1.8129 0.38041 0.2972 0.38749 0.2242 0.0906-0.9364-0.53892-2.1072-1.4011-3.6434-2.8676-5.11-1.2305-1.2306-2.7111-1.9597-3.9793-1.9597-0.26777 0-0.48686-0.051-0.48686-0.1127 0-0.1753 1.4903-0.1339 2.0292 0.056 0.66415 0.2343 0.67669 0.2285 0.67389-0.31-6e-3 -1.1316-0.73618-1.8919-2.1974-2.2874-1.9177-0.5192-4.2424 0.2416-6.6315 2.17l-0.77089 0.6224 0.60179 0.3366c0.97683 0.5463 2.6874 1.6886 2.6874 1.7943 0 0.1686-0.11836 0.1144-1.1151-0.5104-2.6805-1.6801-4.5378-2.2351-8.0163-2.3956-6.9993-0.3226-17.147 3.4454-23.894 8.8723-0.62103 0.4995-1.7008 1.4751-2.3994 2.1682l-1.2703 1.2599 0.6764 0.038c1.1612 0.065 2.8417-0.1867 4.0584-0.6076 0.62005-0.2144 1.2161-0.42 1.3246-0.4567 0.10876-0.036 0.19728-0.01 0.19728 0.058 0 0.2076-1.1071 0.6999-2.1885 0.9733l-1.0226 0.2585 0.50637 0.1352c2.0622 0.5508 4.8438 2.557 5.8448 4.2153 1.3619 2.2564 1.6365 5.3501 0.73159 8.2427-0.44567 1.4245-1.7922 3.3978-2.8649 4.1988-0.30573 0.2282-0.55588 0.4447-0.55588 0.4808 0 0.037 0.20292 0.2639 0.45093 0.5061 0.24802 0.2421 0.45093 0.4807 0.45093 0.5302 0 0.2037-0.27174 0.056-0.98942-0.5357-1.1688-0.9642-1.8402-1.2327-2.9758-1.1897-0.42393 0.016-0.96745 0.5131-1.1208 1.025-0.1178 0.3931-0.0982 0.5006 0.21143 1.1625 0.22007 0.4702 0.62571 1.0286 1.1424 1.5725 0.74254 0.7817 0.94568 1.099 0.70359 1.099-0.29239 0-1.936-1.8481-2.0983-2.3594-0.0672-0.2121-0.13824-0.2222-1.1082-0.1589-2.4442 0.1596-4.7161-0.4934-6.963-2.0014-1.297-0.8706-2.3094-2.1225-2.9999-3.7099-0.20233-0.465-0.39885-0.8454-0.43673-0.8454-0.1973 0-2.0247 3.1149-3.0422 5.1857-1.4076 2.8647-2.3663 5.2649-3.6249 9.0751-2.0692 6.2646-3.328 11.276-3.9926 15.896-0.58226 4.0468-0.22649 9.219 1.0934 15.895 1.157 5.8526 1.9705 7.7157 5.1926 11.893 1.4322 1.8569 2.3493 3.1728 2.8209 4.0475l0.37051 0.6874 9.7e-4 -0.902c2e-3 -1.5692-0.44082-2.8639-1.493-4.3698-0.24965-0.3572-0.42416-0.6794-0.38782-0.7157 0.0994-0.099 1.156 1.3828 1.5408 2.1618 0.71714 1.4514 0.89346 3.5076 0.50993 5.9467-0.18181 1.1562-0.1919 1.4709-0.0766 2.3845 0.31831 2.5201 1.506 4.974 2.9112 6.0152 1.1519 0.8534 2.3404 1.158 4.271 1.0948 0.95479-0.031 1.4216-0.1046 2.0292-0.3192zm13.303-38.732c-0.37202-0.1078-0.95541-0.3251-1.2964-0.4842-0.62033-0.2895-3.9799-2.6902-3.8902-2.7799 0.073-0.072 0.69089 0.3167 1.9213 1.2118 1.9258 1.401 3.3442 1.9267 5.189 1.9231 2.4602 0 4.3023-0.9033 5.6056-2.7341 1.0331-1.4514 1.3295-2.4787 1.3572-4.7044 0.0134-1.0728-0.0292-1.4421-0.24715-2.1418-0.37536-1.2053-1.2254-2.9469-1.9692-4.0347-0.3514-0.5139-0.63893-0.9577-0.63893-0.9863 0-0.3178 1.0232 0.9769 1.737 2.1982 1.0864 1.8584 1.6134 3.7807 1.4822 5.406-0.17219 2.1341-0.48014 3.124-1.3517 4.3453-1.0755 1.5073-2.5792 2.5203-4.2013 2.8308-1.1395 0.218-2.8481 0.195-3.6974-0.049zm0.85771-2.0483c-1.1407-0.2347-2.9595-1.356-6.5508-4.0381-1.9485-1.4554-3.5642-2.4119-4.7812-2.8307-0.67395-0.2318-3.1378-0.7086-4.6884-0.9071-1.369-0.1752-2.7294-0.5129-3.3655-0.8353-1.9309-0.9783-3.1503-3.3644-2.8395-5.5556 0.5831-4.1113 3.4202-6.9098 7.0054-6.9098 1.6804 0 3.5798 0.4973 6.3582 1.6646 0.80604 0.3387 2.3804 0.9845 3.4985 1.4352 3.4862 1.4052 5.6026 2.5934 7.6287 4.2826 1.6099 1.3423 2.9273 3.5651 3.352 5.6561 0.53509 2.6344 0.1138 4.7952-1.2443 6.3814-1.0833 1.2653-2.911 1.9578-4.3731 1.6567zm0.33527-1.2249c-0.25064-1.6156-0.8103-2.7954-1.9275-4.0631-1.1118-1.2617-2.4358-2.2075-4.7522-3.3944-2.2583-1.1573-2.5737-1.4051-2.5737-2.0229 0-1.2148 1.3999-1.5382 3.5962-0.8306 1.1043 0.3556 3.1046 1.3329 4.1824 2.0431 2.3347 1.5387 4.5766 4.1317 5.4711 6.3281l0.24734 0.6073 0.28666-0.6073c0.79321-1.6804 0.68585-4.5699-0.24875-6.6937-0.44073-1.0016-1.4474-2.378-2.3826-3.2577l-0.91354-0.8594-0.30004 0.2096c-0.72227 0.5046-1.4741 0.3751-2.1267-0.3663-0.23678-0.269-0.50436-0.6352-0.59462-0.8139-0.0902-0.1785-0.17449-0.3419-0.18717-0.3628-0.0127-0.022-0.17578 0.074-0.36244 0.2127-0.73288 0.5419-2.0034 0.019-2.6759-1.1021l-0.34835-0.5804-0.24664 0.2466c-0.34206 0.3422-1.3271 0.348-1.7822 0.012-0.44698-0.3313-0.81728-0.9127-0.89642-1.4076l-0.0673-0.4211-0.33409 0.3805c-0.84021 0.957-2.2362 0.3974-2.7468-1.1011l-0.17206-0.5049-0.43315 0.4331c-0.4732 0.4731-0.78463 0.5358-1.3951 0.2808-0.46155-0.1929-1.0303-0.8356-1.2033-1.36l-0.1334-0.4042h-0.75994c-1.5437 0-2.8739 0.596-4.137 1.8535-1.0814 1.0767-1.5917 2.0148-2.0198 3.7131-0.41616 1.6509-0.34622 2.5516 0.30002 3.8642 0.81906 1.6638 2.0513 2.4587 4.4335 2.8601l1.3504 0.2275 0.19715-0.2561c0.10844-0.1409 0.19827-0.2897 0.19966-0.3307 6e-3 -0.1696 1.0106-0.5456 1.4584-0.5456 0.72394 0 1.2286 0.2887 1.5072 0.8623 0.23503 0.4838 0.23977 0.4864 0.46911 0.2772 0.61051-0.5566 1.2856-0.6771 1.7673-0.3149 0.28857 0.2169 0.77544 0.9889 0.77544 1.2295 0 0.19 0.0478 0.2068 0.36637 0.1279 0.74263-0.1837 1.0792-0.1056 1.5588 0.3631 0.24925 0.2434 0.53568 0.6753 0.63701 0.9605 0.18008 0.5071 0.19041 0.5152 0.47378 0.3672 0.64353-0.3358 1.2468-0.097 1.8584 0.7364 0.22502 0.3064 0.46368 0.7138 0.53037 0.9052 0.13681 0.3924 0.17963 0.4078 0.48716 0.1751 0.36088-0.273 1.1196-0.2105 1.5183 0.125 0.40007 0.3367 0.96226 1.4502 1.1561 2.29 0.11171 0.4839 0.18313 0.5925 0.4243 0.6451 0.1595 0.034 0.34073 0.077 0.40273 0.094 0.18895 0.052 0.19352-0.01 0.0657-0.8294zm2.2073 0.5048c0.39358-0.1767 0.9058-0.5327 1.2087-0.8402l0.52559-0.5336-0.32366-0.7828c-1.0399-2.5145-3.3192-5.0525-5.9382-6.6117-3.3696-2.0062-6.4822-2.5857-6.4822-1.2069 0 0.4058 0.26469 0.5905 2.2706 1.5842 2.4756 1.2265 3.655 2.078 5.0347 3.6354 1.114 1.2574 1.765 2.7613 2.0001 4.6203l0.0694 0.5492 0.47596-0.054c0.26176-0.029 0.78333-0.1916 1.159-0.3602zm-3.5723-0.5321c-0.0718-0.2698-0.28882-0.7892-0.48233-1.1544-0.39768-0.7502-0.81465-1.0168-1.3164-0.8418-0.27902 0.097-0.67856 0.6099-0.67856 0.8706 0 0.1973 2.4492 1.7746 2.5691 1.6547 0.0212-0.022-0.0202-0.2594-0.0918-0.5291zm-2.8909-1.7024c-0.17776-0.9329-1.0791-2.1138-1.6133-2.1138-0.37503 0-0.79134 0.2936-0.79134 0.5578 0 0.1309 0.42116 0.5216 1.1476 1.0647 0.63119 0.4717 1.188 0.8576 1.2372 0.8576 0.0492 0 0.0582-0.1648 0.0199-0.3663zm-2.9168-2.1419c-0.18495-0.8569-0.82109-1.6628-1.3124-1.6628-0.27394 0-0.88107 0.3099-0.88107 0.4498 0 0.059 0.43257 0.3937 0.96129 0.7455 0.52867 0.3519 0.98825 0.6833 1.0212 0.7368 0.15061 0.2437 0.28474 0.072 0.21099-0.2693zm-2.8647-2.3291c-0.45293-0.8878-1.0593-1.0026-1.7337-0.3282l-0.3468 0.3467 0.67126 0.2466c0.3692 0.1355 0.87419 0.3529 1.1222 0.4827l0.45092 0.2364 0.0348-0.2633c0.0191-0.1447-0.0702-0.469-0.19874-0.7209zm-2.7108-0.3896c0-0.6803-0.84826-1.1616-1.6766-0.9513-0.44517 0.113-1.0209 0.5872-0.88179 0.7263 0.0713 0.071 1.9713 0.4578 2.3611 0.4803 0.13548 0.01 0.19728-0.072 0.19728-0.2553zm13.083-6.2542 0.25657-0.2077-0.61046-0.456c-0.90675-0.6771-1.9069-1.2135-1.9069-1.0226 0 0.3017 0.7363 1.3817 1.1158 1.6366 0.46368 0.3117 0.80331 0.3263 1.145 0.049zm-3-1.5083c0.32243-0.4603 0.2237-0.5913-0.81092-1.0763-1.4011-0.6569-1.8319-0.8199-1.8319-0.693 0 0.2026 0.32912 0.9017 0.56923 1.2092 0.59251 0.7584 1.7211 1.0633 2.0736 0.5601zm-3.5492-1.2127c0.1134-0.061 0.25952-0.2632 0.32468-0.4501 0.0985-0.2827 0.0862-0.3572-0.0727-0.4417-0.4346-0.2316-2.2073-0.9085-2.2547-0.8611-0.0281 0.028 0.0441 0.3438 0.16062 0.7015 0.15992 0.4911 0.30585 0.7132 0.59493 0.9062 0.40507 0.2702 0.90472 0.3285 1.2471 0.1452zm-3.2586-1.2457c0.22498-0.1204 0.61492-0.7658 0.52-0.8608-0.11242-0.1124-2.1156-0.9395-2.2754-0.9395-0.40958 0 0.0188 1.1099 0.62555 1.6204 0.36969 0.311 0.76672 0.3742 1.1299 0.1799zm-2.9691-1.5634c0.1415-0.2108 0.25725-0.4244 0.25725-0.4746 0-0.051-0.26632-0.171-0.59185-0.2676-0.68606-0.2038-1.7756-0.3502-1.7756-0.2386 0 0.2577 0.51669 1.0131 0.82188 1.2017 0.52401 0.3237 0.97443 0.2465 1.2883-0.2209zm-6.4794 13.628c-2.7091-0.7099-5.0631-2.8925-5.8752-5.4476-0.18066-0.5683-0.36305-1.3402-0.4053-1.7154-0.17213-1.5281 0.38825-3.735 1.3667-5.3827 0.72914-1.2277 2.2331-2.756 3.1185-3.1691 0.91826-0.4283 1.0813-0.2947 0.19108 0.1566-0.85561 0.4339-2.0119 1.5416-2.6499 2.5388-2.2597 3.5321-2.2595 6.9821 0 9.8403 0.40359 0.5102 1.0504 1.163 1.4373 1.4507 0.83475 0.6204 2.47 1.4191 3.3918 1.6568 0.36254 0.094 0.68807 0.1988 0.72339 0.2341 0.12594 0.126-0.49371 0.047-1.2988-0.1625zm26.736-7.8247c-0.76594-0.1748-1.9869-0.7491-1.7586-0.827 0.0807-0.028 0.38649 0.053 0.67947 0.1789 0.85814 0.3692 1.9385 0.5047 3.5019 0.4393 2.149-0.089 3.9822-0.6705 5.453-1.7272 0.77776-0.5587 0.93301-0.4145 0.19032 0.177-0.75054 0.5975-2.3951 1.3957-3.3804 1.6406-1.0183 0.2532-3.7887 0.3231-4.6857 0.1184zm0.34927-3.0662c-3.4842-0.3607-7.8074-3.041-9.5533-5.9231-1.3565-2.2391-1.7739-5.1351-1.1104-7.7042 0.47551-1.8412 1.8078-4.0741 3.0651-5.1371 1.8489-1.5634 3.5323-2.2494 6.0913-2.4828 4.1484-0.3785 7.604 1.0355 10.078 4.1238 0.3673 0.4587 0.6783 0.8234 0.69111 0.8106 0.0129-0.013-0.0745-0.3766-0.19437-0.8085-0.2389-0.8615-0.26379-1.0717-0.12688-1.0717 0.0499 0 0.28367 0.5707 0.5194 1.2682 0.56348 1.6675 1.1431 2.7433 2.1618 4.0129 0.45952 0.5728 0.83551 1.0899 0.83551 1.1493 0 0.2666-0.27706 0.044-0.98131-0.7882-0.41711-0.493-0.77094-0.8838-0.78628-0.8685-0.0153 0.015 0.0456 0.2723 0.13547 0.5708 0.80321 2.6689 0.10593 6.1599-1.8035 9.0296-1.2567 1.8888-3.1112 3.1435-5.3367 3.6108-0.79478 0.167-2.9223 0.287-3.6848 0.2081zm3.7176-0.5587c1.0097-0.2089 2.6378-0.9918 3.4581-1.6628 2.2791-1.8646 3.9533-6.1349 3.5799-9.1309-0.28744-2.3065-1.346-4.4371-3.1353-6.3106-2.3621-2.4733-5.2654-3.5229-8.9731-3.2437-1.6647 0.1253-2.6012 0.3694-3.9457 1.0285-1.186 0.5814-2.1094 1.302-3.0262 2.3616-0.64408 0.7444-1.7766 3.0012-2.0649 4.1147-0.28145 1.0871-0.27922 3.6404 4e-3 4.6785 0.30418 1.1144 1.1261 2.7574 1.7881 3.5744 1.9086 2.3555 5.6416 4.4829 8.3683 4.769 1.1246 0.1181 2.901 0.038 3.9467-0.1787zm-0.47646-15.541c-0.21331-0.2157-0.36639-0.486-0.36639-0.6472 0-0.2807 0.52029-0.8825 0.76306-0.8825 0.22054 0 0.70249 0.8205 0.70249 1.1959 0 0.683-0.57962 0.8589-1.0992 0.3338zm-33.257 4.5296c-0.74844-0.602-1.3801-1.5164-1.3801-1.9974 0-0.2581 0.2027-0.091 0.38808 0.3202 0.10827 0.2402 0.52181 0.7587 0.919 1.1524 0.39716 0.3936 0.72213 0.7551 0.72213 0.8034 0 0.1695-0.19786 0.086-0.64911-0.2786zm10.083 1.4277c0.3092-0.063 0.33062-0.1004 0.33062-0.5942 0-0.6347 0.25676-1.1099 0.80115-1.483 0.66424-0.4552 1.8802-0.3258 2.8862 0.3071 0.23704 0.1492 0.47587 0.2555 0.53066 0.2364 0.23194-0.08 1.3334-1.0827 1.8282-1.6624 0.83234-0.9753 1.6164-2.6533 1.8997-4.0655 0.19558-0.975 0.22649-1.4323 0.1753-2.593-0.0732-1.6594-0.26476-2.44-0.89836-3.6605-0.83008-1.5992-2.471-3.0483-4.5925-4.0558-1.1862-0.5632-2.1231-0.7344-4.0358-0.7367-1.5085 0-1.6878 0.022-2.6492 0.3435-1.7964 0.6018-2.6963 1.1505-3.9623 2.4165-1.8091 1.8091-2.7435 3.6527-3.0122 5.943-0.23604 2.0117 0.19548 3.7465 1.3761 5.5323 0.65989 0.9982 1.3809 1.6984 2.4618 2.3909 1.3851 0.8876 2.7413 1.4165 4.1683 1.6258 0.78602 0.1152 2.2438 0.1453 2.6926 0.056zm-1.52-14.779c-0.22177-0.088-0.72312-0.9376-0.65647-1.1115 0.0685-0.1782 0.74642-0.3285 1.0491-0.2325 0.26865 0.086 0.63156 0.7548 0.53938 0.9951-0.0525 0.1367-0.69198 0.481-0.77407 0.4166-6e-3 0-0.0774-0.036-0.15798-0.067z"
         fill="#141804"
         id="path1931" />
      <path
         style="fill:#ffffff;stroke:#ffffff;stroke-width:0.0420917;stroke-linecap:round"
         d="m 32.39261,34.666963 c -0.01978,-0.032 -0.154733,-0.03735 -0.400738,-0.01589 -0.330537,0.02883 -0.364604,0.02475 -0.312927,-0.03752 0.0491,-0.05916 0.04037,-0.0743 -0.05699,-0.09873 -0.143749,-0.03608 -0.351421,0.01265 -0.313742,0.07361 0.01655,0.02678 -0.007,0.03579 -0.0572,0.02187 -0.04693,-0.01301 -0.161829,-0.03655 -0.255327,-0.05232 -0.0949,-0.016 -0.165256,-0.05246 -0.159266,-0.08253 0.01355,-0.06799 -0.189238,-0.101778 -0.249455,-0.04156 -0.05382,0.05382 -0.835456,-0.148115 -1.377981,-0.355993 -0.576025,-0.220714 -1.251376,-0.555944 -1.251376,-0.621156 0,-0.07237 -0.441978,-0.304668 -0.462959,-0.243327 -0.02755,0.08055 -0.837771,-0.484641 -1.167684,-0.814554 -0.180088,-0.180088 -0.345733,-0.316123 -0.3681,-0.3023 -0.02237,0.01382 -0.08887,-0.03215 -0.147774,-0.102156 -0.05891,-0.07001 -0.219665,-0.229222 -0.357235,-0.353806 -0.146216,-0.132414 -0.244208,-0.25725 -0.23588,-0.300495 0.0084,-0.04371 -0.081,-0.154997 -0.218559,-0.272005 -0.385451,-0.327863 -0.990686,-1.327991 -1.342109,-2.217783 -0.240594,-0.609175 -0.435391,-1.404499 -0.375952,-1.534952 0.05792,-0.127116 0.0047,-0.388262 -0.05865,-0.288053 -0.04592,0.07258 -0.04505,0.08867 -0.05056,-0.935217 -0.005,-0.932074 0.0029,-1.10158 0.048,-1.030371 0.07022,0.110826 0.107493,-0.03094 0.07549,-0.287116 -0.03529,-0.282475 0.125291,-1.070933 0.347252,-1.70499 0.190744,-0.544883 0.540183,-1.277706 0.609261,-1.277706 0.07956,0 0.246837,-0.282122 0.268425,-0.452702 0.0098,-0.07726 0.05885,-0.206662 0.109051,-0.287556 0.180879,-0.291477 0.580326,-0.798138 0.72565,-0.92042 0.0816,-0.06866 0.177353,-0.180898 0.212783,-0.249411 0.0925,-0.178885 1.20472,-1.300364 1.275025,-1.285646 0.03242,0.0068 0.158226,-0.09852 0.27958,-0.234009 0.43429,-0.484882 1.49917,-1.084642 2.662917,-1.499804 1.094814,-0.390571 1.202878,-0.412825 2.085432,-0.429457 0.939252,-0.0177 1.341218,-0.0167 1.865688,0.0047 0.212734,0.0087 0.505741,0.01903 0.651126,0.02303 0.163009,0.0045 0.253556,0.02472 0.236213,0.05278 -0.02997,0.04849 0.05245,0.05804 0.398296,0.04617 0.160435,-0.0055 0.223441,0.01124 0.244019,0.06487 0.02032,0.05295 0.0842,0.07076 0.238768,0.06656 0.49165,-0.01336 2.217714,0.799805 2.683243,1.264106 0.12623,0.125898 0.237539,0.196468 0.309886,0.196468 0.140389,0 0.43568,0.222242 0.745048,0.56074 0.129861,0.142088 0.262525,0.258342 0.294809,0.258342 0.06543,0 0.84226,0.758459 0.84226,0.82234 0,0.0223 0.12954,0.179145 0.287867,0.34855 0.337701,0.361331 0.580931,0.706244 0.596477,0.845837 0.01787,0.160488 0.197341,0.530386 0.27106,0.558674 0.144561,0.05547 0.544191,1.184081 0.500928,1.414686 -0.03564,0.189967 0.01115,0.340875 0.07459,0.240564 0.04781,-0.07559 0.06724,0.141147 0.04653,0.518991 -0.0081,0.148473 0.0082,0.234533 0.04941,0.259992 0.04755,0.02939 0.06412,0.232745 0.07275,0.892926 0.01886,1.442276 0.0077,1.679515 -0.07778,1.660313 -0.04755,-0.01068 -0.05563,0.04863 -0.03718,0.273027 0.01296,0.157667 0.0078,0.33786 -0.01143,0.400429 -0.01925,0.06257 -0.03703,0.08817 -0.03953,0.05688 -0.01065,-0.133548 -0.09555,-0.04257 -0.09555,0.102385 0,0.0876 0.01871,0.159266 0.04157,0.159266 0.02286,0 0.02798,0.0508 0.01138,0.112896 -0.01661,0.06209 -0.04838,0.111537 -0.07061,0.109875 -0.07748,-0.0058 -0.119633,0.119651 -0.09411,0.280083 0.0324,0.203673 -0.18983,0.836673 -0.571683,1.628384 -0.410382,0.850861 -0.684659,1.279729 -0.928168,1.45131 -0.190892,0.134506 -0.265717,0.239837 -0.170377,0.239837 0.021,0 -0.250322,0.291798 -0.602935,0.64844 -0.352613,0.356642 -0.652307,0.633495 -0.665986,0.615228 -0.03809,-0.05087 -0.37034,0.241408 -0.346131,0.304494 0.01169,0.03046 -0.03749,0.09008 -0.109278,0.132487 -0.12702,0.07503 -0.137966,0.07335 -0.407047,-0.06248 -0.152083,-0.07677 -0.264426,-0.159145 -0.249651,-0.183053 0.02836,-0.04589 -0.365835,-0.317503 -0.460798,-0.317503 -0.03056,0 -0.0627,0.02144 -0.07144,0.04764 -0.01034,0.03103 -0.0719,0.02423 -0.176536,-0.01949 -0.326562,-0.136447 -0.908865,-0.223575 -1.306616,-0.195505 -0.353521,0.02495 -0.481691,0.06541 -0.931702,0.294112 -0.01879,0.0095 -0.02172,-0.01507 -0.0065,-0.0547 0.04982,-0.129814 -0.05051,-0.07583 -0.257014,0.138304 -0.123053,0.127598 -0.181091,0.218405 -0.147516,0.230806 0.03818,0.0141 0.01956,0.07454 -0.06,0.194762 -0.155575,0.23509 -0.245623,0.55304 -0.245623,0.867264 0,0.393494 -0.04131,0.551977 -0.136028,0.521913 -0.115308,-0.0366 -0.237579,0.02303 -0.207572,0.10123 0.02162,0.05635 -0.01758,0.06187 -0.248827,0.03503 -0.202214,-0.02347 -0.294108,-0.01567 -0.348984,0.02963 -0.05832,0.04813 -0.07865,0.04913 -0.09363,0.0046 -0.0233,-0.06922 -0.538377,-0.07932 -0.580368,-0.01138 -0.037,0.05987 -0.146026,0.05824 -0.183715,-0.0027 z m 1.735197,-0.701539 c -0.01636,-0.06519 -0.04962,-0.106236 -0.07392,-0.09122 -0.05142,0.03178 -0.05986,0.309607 -0.01089,0.358577 0.05493,0.05493 0.116764,-0.14001 0.0848,-0.267355 z m -1.961494,-14.086186 -0.02936,-0.09249 0.151427,0.09232 c 0.199222,0.12146 0.33895,0.116672 0.610136,-0.02091 0.265818,-0.134858 0.2507,-0.132048 0.215389,-0.04003 -0.04881,0.127188 0.207132,-0.06663 0.283823,-0.214931 0.07532,-0.145653 0.0884,-0.405044 0.02043,-0.405044 -0.02503,0 -0.0455,0.03072 -0.0455,0.06826 0,0.03754 -0.02048,0.06826 -0.0455,0.06826 -0.02503,0 -0.0457,-0.03584 -0.04593,-0.07963 -6.55e-4,-0.121755 -0.253373,-0.535626 -0.395984,-0.64849 -0.112609,-0.08912 -0.167932,-0.09831 -0.491496,-0.08166 -0.216065,0.01112 -0.427472,0.05012 -0.518918,0.09574 -0.190251,0.09491 -0.182196,0.09565 -0.153515,-0.01403 0.03318,-0.126896 -0.06079,-0.113804 -0.148955,0.02075 -0.07498,0.114428 -0.05712,0.206771 0.03998,0.206771 0.02997,0 0.0804,0.08303 0.112077,0.184508 0.03167,0.101479 0.108327,0.264889 0.170345,0.363132 0.131334,0.208046 0.136819,0.232314 0.0445,0.196889 -0.10398,-0.0399 -0.08203,0.07065 0.04782,0.240901 0.129683,0.170023 0.224246,0.201517 0.179232,0.05969 z m 0.501021,-1.454665 c -0.03594,-0.05815 -0.433316,-0.05815 -0.523302,0 -0.04777,0.03087 0.02474,0.04432 0.241584,0.04481 0.195135,4.39e-4 0.29943,-0.01615 0.281718,-0.04481 z"
         id="path2579"
         transform="translate(581.49,1288.7)" />
      <path
         style="fill:#ffffff;stroke:#ffffff;stroke-width:0.0420917;stroke-linecap:round"
         d="m 53.97589,44.419823 c 0.106938,-0.0096 0.182518,-0.03675 0.167957,-0.06031 -0.03552,-0.05747 -0.536855,-0.05494 -0.594793,0.003 -0.06347,0.06347 -0.472916,0.0029 -0.472916,-0.06991 0,-0.08568 -0.121825,-0.115776 -0.258434,-0.06384 -0.0961,0.03654 -0.225309,0.01639 -0.625293,-0.09751 -0.74454,-0.212008 -1.534914,-0.528529 -1.641777,-0.657483 -0.106938,-0.129044 -0.353692,-0.234743 -0.377971,-0.161907 -0.0208,0.06241 -0.352988,-0.106414 -0.387778,-0.197073 -0.03221,-0.08394 -0.381743,-0.267598 -0.440347,-0.231379 -0.06393,0.03951 -0.318308,-0.106385 -0.318308,-0.182559 0,-0.03648 -0.102385,-0.118204 -0.227523,-0.181616 -0.125137,-0.06341 -0.227522,-0.09301 -0.227522,-0.06578 0,0.02723 -0.230367,-0.108557 -0.511927,-0.30176 -0.700633,-0.480767 -0.713647,-0.490683 -0.715267,-0.545004 -7.86e-4,-0.02638 -0.07399,-0.118286 -0.162681,-0.204246 -0.116263,-0.112686 -0.171052,-0.140432 -0.196381,-0.09945 -0.03621,0.05859 -0.173161,-0.05867 -0.261842,-0.224208 -0.02219,-0.04142 -0.388452,-0.409268 -0.81392,-0.817445 -0.425468,-0.408176 -0.84174,-0.835023 -0.925048,-0.948547 -0.205724,-0.280341 -0.508245,-0.800109 -0.508791,-0.874164 -7.75e-4,-0.105091 -0.224078,-0.545341 -0.264071,-0.520625 -0.04782,0.02956 -0.410113,-0.777821 -0.621369,-1.384742 -0.129342,-0.371591 -0.153268,-0.494602 -0.129678,-0.666712 0.02461,-0.179542 0.01833,-0.206982 -0.04208,-0.1838 -0.0556,0.02134 -0.07478,-0.01231 -0.08839,-0.155024 -0.0096,-0.10025 -0.0013,-0.192189 0.01827,-0.204309 0.05863,-0.03624 0.04041,-0.220503 -0.03115,-0.315124 -0.103539,-0.136891 -0.101157,-2.361359 0.0026,-2.465157 0.06384,-0.06384 0.06975,-0.167862 0.02007,-0.353448 -0.02178,-0.08137 0.0051,-0.411244 0.02873,-0.35266 0.01262,0.03128 0.04172,0.05688 0.06466,0.05688 0.05333,0 0.055,-0.260396 0.0018,-0.280612 -0.05936,-0.02256 0.06255,-0.448749 0.297213,-1.039021 0.405288,-1.019478 1.35733,-2.821284 1.490716,-2.821284 0.09142,0 0.304002,-0.299857 0.271896,-0.383523 -0.01742,-0.0454 -0.0026,-0.07152 0.04069,-0.07152 0.03748,0 0.34,-0.281513 0.672274,-0.625584 0.406978,-0.421428 0.63089,-0.621051 0.686123,-0.611694 0.05296,0.009 0.126803,-0.05002 0.208558,-0.166603 0.138367,-0.197319 0.931953,-0.725833 1.171276,-0.78005 0.160501,-0.03636 0.398499,-0.153716 0.486761,-0.24002 0.08777,-0.08583 0.760966,-0.364628 1.27395,-0.527606 0.35076,-0.111438 0.485892,-0.133997 0.671193,-0.112051 0.159328,0.01887 0.232012,0.01124 0.232012,-0.02436 0,-0.02851 -0.0256,-0.05454 -0.05688,-0.05783 -0.03128,-0.0033 0.01479,-0.01972 0.102385,-0.03651 0.0876,-0.01678 0.183735,-0.01252 0.213642,0.0095 0.07042,0.05181 0.26812,0.02406 0.251082,-0.03524 -0.02052,-0.07141 0.336732,-0.106654 0.811238,-0.08003 0.363498,0.0204 0.446255,0.01223 0.508676,-0.05019 0.06308,-0.06308 0.190824,-0.07455 0.830053,-0.07455 0.655529,0 0.759261,0.0098 0.783891,0.07397 0.02445,0.06372 0.08572,0.07013 0.442241,0.04621 0.227621,-0.01527 0.485525,-0.0097 0.573121,0.01238 0.0876,0.02208 0.132461,0.04223 0.0997,0.0448 -0.03276,0.0026 -0.04691,0.02513 -0.03144,0.05016 0.03666,0.05931 0.283663,0.0591 0.30345,-2.58e-4 0.01978,-0.05935 0.956387,0.16961 1.58499,0.387462 0.953204,0.330346 2.081375,0.950374 2.403888,1.321144 0.101514,0.116702 0.162385,0.156311 0.184709,0.12019 0.02185,-0.03536 0.107559,0.03214 0.249376,0.196407 0.118843,0.137656 0.243937,0.250283 0.277986,0.250283 0.09485,0 1.141959,1.028067 1.270479,1.247369 0.06241,0.106501 0.191402,0.264036 0.286639,0.350078 0.09524,0.08604 0.173161,0.182014 0.173161,0.21327 0,0.03126 0.114093,0.174156 0.253539,0.317552 0.29553,0.303902 0.527591,0.639102 0.855486,1.235703 0.50822,0.9247 0.929639,2.033333 0.935341,2.460615 0.0023,0.174594 0.02054,0.246835 0.06022,0.238899 0.03128,-0.0063 0.05722,-0.0063 0.05763,0 4.1e-4,0.0063 0.03993,0.226385 0.08782,0.489174 0.05377,0.29507 0.07089,0.494331 0.04476,0.521027 -0.05458,0.05577 -0.05512,0.375775 -6.92e-4,0.409414 0.02289,0.01415 0.05199,-2e-6 0.06466,-0.03144 0.01268,-0.03144 0.02466,0.201727 0.02664,0.51815 0.0031,0.492797 -0.0071,0.579413 -0.07086,0.603883 -0.06315,0.02423 -0.07024,0.0785 -0.04675,0.357529 0.02898,0.344173 -0.01104,0.647493 -0.08544,0.647493 -0.0404,0 -0.05251,0.120899 -0.02279,0.227523 0.007,0.02503 0.01026,0.101174 0.0073,0.169214 -0.0039,0.08971 -0.02401,0.116564 -0.07315,0.09771 -0.05554,-0.02131 -0.06696,0.02203 -0.06332,0.240327 0.0074,0.44227 -0.397339,1.617677 -0.937811,2.723578 -0.360282,0.737202 -0.831126,1.524404 -0.911781,1.524404 -0.08384,0 -0.308,0.263366 -0.281948,0.331257 0.01462,0.03811 -0.02794,0.0946 -0.106032,0.140728 -0.136786,0.0808 -0.452632,0.439121 -0.452632,0.5135 0,0.06805 -0.309221,0.350211 -0.397899,0.363078 -0.04394,0.0064 -0.147561,0.0895 -0.23026,0.184725 -0.0827,0.09522 -0.197268,0.224326 -0.254598,0.286895 -0.130731,0.142678 -0.81591,0.550572 -0.95068,0.565949 -0.132639,0.01513 -0.578305,0.243201 -0.578305,0.295945 0,0.0227 -0.250844,0.139685 -0.557431,0.259959 -0.422805,0.165867 -0.617876,0.218904 -0.807707,0.219606 -0.173605,6.42e-4 -0.246871,0.01811 -0.239165,0.05701 0.01579,0.0797 -0.213207,0.126747 -0.31314,0.06434 -0.113476,-0.07087 -0.145396,-0.06643 -0.264406,0.03679 -0.07093,0.06152 -0.141534,0.08116 -0.228927,0.06368 -0.0695,-0.0139 -0.169818,-0.002 -0.22293,0.02641 -0.06362,0.03405 -0.09657,0.03561 -0.09657,0.0046 0,-0.07486 -0.390423,-0.05671 -0.455046,0.02115 -0.06472,0.07798 -0.478061,0.09596 -0.523302,0.02275 -0.01547,-0.02503 -0.158808,-0.0455 -0.318532,-0.0455 -0.159725,0 -0.303065,0.02048 -0.318532,0.0455 -0.01643,0.02658 -0.230392,0.0422 -0.514613,0.03755 -0.267568,-0.0044 -0.398994,-0.01581 -0.292057,-0.02542 z m 3.772062,-15.269158 c 0.164108,-0.09198 0.369861,-0.388658 0.402169,-0.579887 0.01675,-0.09912 0.04914,-0.191779 0.07199,-0.205901 0.04731,-0.02924 0.05553,-0.249444 0.01341,-0.359206 -0.02562,-0.06676 -0.03313,-0.06649 -0.08394,0.003 -0.05091,0.06963 -0.05805,0.06775 -0.08137,-0.02142 -0.01732,-0.06623 -0.0046,-0.09774 0.03933,-0.09774 0.208659,0 -0.175017,-0.519709 -0.471905,-0.639221 -0.0565,-0.02274 -0.09745,-0.0674 -0.09101,-0.09923 0.0074,-0.03658 -0.03854,-0.05788 -0.124805,-0.05788 -0.0876,0 -0.132194,0.02111 -0.124458,0.05892 0.0066,0.03241 -0.0548,0.08704 -0.136514,0.121411 -0.160908,0.06768 -0.416826,0.309823 -0.373374,0.353275 0.04196,0.04196 -0.11515,0.314423 -0.163922,0.28428 -0.0253,-0.01564 -0.04357,0.05945 -0.04357,0.179102 0,0.152103 0.01574,0.199987 0.06015,0.182946 0.03415,-0.0131 0.08242,0.0258 0.111673,0.08999 0.02834,0.06219 0.121414,0.190966 0.206838,0.286162 0.08542,0.0952 0.169483,0.218625 0.186797,0.274284 0.07268,0.233642 0.382488,0.350417 0.602502,0.227097 z"
         id="path2581"
         transform="translate(581.49,1288.7)" />
      <path
         style="fill:#ffffff;stroke:#ffffff;stroke-width:0.053501;stroke-linecap:round"
         d="m 35.391222,43.637817 c -0.06362,-0.02419 -0.287232,-0.222584 -0.496909,-0.440875 -0.275219,-0.286527 -0.415952,-0.489979 -0.50609,-0.731638 -0.251627,-0.674603 -0.183595,-0.696539 0.860497,-0.27745 1.236232,0.496211 1.386037,0.568718 1.386037,0.670849 0,0.146204 -0.147588,0.388626 -0.362046,0.594682 -0.159413,0.153168 -0.254148,0.19434 -0.482105,0.20952 -0.156039,0.01039 -0.335762,-8.98e-4 -0.399384,-0.02509 z"
         id="path2583"
         transform="translate(581.49,1288.7)" />
      <path
         style="fill:#ffffff;stroke:#ffffff;stroke-width:0.053501;stroke-linecap:round"
         d="m 32.02949,42.312493 c -0.336227,-0.205992 -0.889426,-0.926579 -0.889426,-1.158549 0,-0.176075 1.815949,0.153392 2.194589,0.398163 0.113795,0.07356 0.01924,0.273965 -0.284975,0.604004 -0.218412,0.236948 -0.252433,0.252949 -0.543374,0.255564 -0.199172,0.0018 -0.370005,-0.03375 -0.476814,-0.09918 z"
         id="path2585"
         transform="translate(581.49,1288.7)" />
      <path
         style="fill:#ffffff;stroke:#ffffff;stroke-width:0.053501;stroke-linecap:round"
         d="m 38.361149,44.802989 c -0.31615,-0.153117 -0.542227,-0.432484 -0.704698,-0.870808 -0.175185,-0.472622 -0.191101,-0.629939 -0.06849,-0.676989 0.09449,-0.03626 1.175522,0.353739 1.765225,0.636831 0.270768,0.129985 0.380961,0.215647 0.393853,0.306177 0.01951,0.137033 -0.175387,0.562682 -0.290116,0.633588 -0.137627,0.08506 -0.902171,0.06496 -1.095773,-0.0288 z"
         id="path2587"
         transform="translate(581.49,1288.7)" />
      <path
         style="fill:#ffffff;stroke:#ffffff;stroke-width:0.053501;stroke-linecap:round"
         d="m 41.869176,46.206999 c -0.127245,-0.04628 -0.310906,-0.16808 -0.408133,-0.27066 -0.09723,-0.10258 -0.302144,-0.30156 -0.455368,-0.442178 -0.374298,-0.343504 -0.762897,-1.161383 -0.551809,-1.161383 0.138235,0 1.798488,0.744942 2.239514,1.004851 0.16701,0.09842 0.303654,0.219721 0.303654,0.269549 0,0.04983 0.03081,0.121411 0.06847,0.159071 0.05274,0.05274 0.01065,0.121852 -0.183141,0.300762 -0.220045,0.203145 -0.284875,0.231777 -0.516724,0.228213 -0.145811,-0.0022 -0.369221,-0.04194 -0.496467,-0.08822 z"
         id="path2589"
         transform="translate(581.49,1288.7)" />
      <path
         style="fill:#ffffff;stroke:#ffffff;stroke-width:0.053501;stroke-linecap:round"
         d="M 45.054969,47.646235 C 44.857184,47.542644 44.37575,47.059899 44.173147,46.762011 43.945825,46.42778 43.73713,46.016591 43.76002,45.948036 c 0.05819,-0.17427 2.331394,1.252056 2.331394,1.462837 0,0.0339 -0.07259,0.115833 -0.161301,0.182069 -0.185612,0.138579 -0.657448,0.167312 -0.875144,0.05329 z"
         id="path2591"
         transform="translate(581.49,1288.7)" />
      <path
         style="fill:#ffffff;stroke:#ffffff;stroke-width:0.053501;stroke-linecap:round"
         d="m 43.864618,60.694912 c -0.238586,-0.128876 -0.72729,-0.429135 -1.08601,-0.667243 -0.909538,-0.603726 -1.104239,-0.949257 -0.666807,-1.183364 0.0787,-0.04212 0.19266,-0.146194 0.253246,-0.231279 0.234285,-0.329023 0.663892,-0.259279 1.04129,0.169048 0.379072,0.430226 0.995234,1.846915 0.910517,2.093474 -0.01015,0.02953 -0.213651,-0.05176 -0.452236,-0.180636 z"
         id="path2593"
         transform="translate(581.49,1288.7)" />
      <path
         style="fill:#ffffff;stroke:#ffffff;stroke-width:0.053501;stroke-linecap:round"
         d="m 40.53695,58.488844 c -0.712757,-0.517377 -1.530798,-1.220169 -1.530798,-1.315134 0,-0.02547 0.08011,-0.132068 0.17803,-0.236888 0.139702,-0.149551 0.241094,-0.198672 0.470959,-0.228161 0.291478,-0.03739 0.294682,-0.03603 0.646175,0.275888 0.401532,0.356319 0.736382,0.828475 0.903186,1.273538 0.144136,0.384584 0.208182,0.765766 0.128663,0.765766 -0.03254,0 -0.390838,-0.240754 -0.796215,-0.535009 z"
         id="path2595"
         transform="translate(581.49,1288.7)" />
      <path
         style="fill:#ffffff;stroke:#ffffff;stroke-width:0.053501;stroke-linecap:round"
         d="m 38.323297,56.869178 c -0.04155,-0.05049 -0.434145,-0.342142 -0.872433,-0.648115 -0.438288,-0.305973 -0.884353,-0.629334 -0.991255,-0.71858 l -0.194368,-0.162266 0.277057,-0.162366 c 0.224428,-0.131524 0.339179,-0.160537 0.60409,-0.152735 0.311884,0.0092 0.338511,0.02232 0.574807,0.283478 0.481985,0.532702 0.72881,1.039831 0.696189,1.430397 -0.01604,0.19206 -0.02873,0.209611 -0.09409,0.130187 z"
         id="path2597"
         transform="translate(581.49,1288.7)" />
      <path
         style="fill:#ffffff;stroke:#ffffff;stroke-width:0.053501;stroke-linecap:round"
         d="m 35.535819,55.079812 c -0.11134,-0.06969 -0.599814,-0.287189 -1.085498,-0.483339 l -0.883062,-0.356635 0.251822,-0.232122 c 0.393523,-0.362737 0.530366,-0.432834 0.851316,-0.436085 0.36391,-0.0037 0.536472,0.113704 0.794728,0.540631 0.21569,0.356563 0.316885,0.678256 0.290943,0.924897 l -0.01781,0.169357 z"
         id="path2599"
         transform="translate(581.49,1288.7)" />
      <path
         style="fill:#ffffff;stroke:#ffffff;stroke-width:0.053501;stroke-linecap:round"
         d="m 31.893272,53.961232 c -0.906655,-0.171945 -1.498051,-0.316013 -1.533645,-0.373606 -0.04062,-0.06573 0.248738,-0.33618 0.547785,-0.511993 0.351217,-0.206485 1.002183,-0.218307 1.367694,-0.02484 0.436759,0.23118 0.725747,0.748939 0.541759,0.970631 -0.08667,0.104433 -0.03923,0.107524 -0.923593,-0.06019 z"
         id="path2601"
         transform="translate(581.49,1288.7)" />
    </g>
  </g>
</svg>
